<?xml version="1.0" encoding="UTF-8" standalone="no"?>
<!DOCTYPE svg PUBLIC "-//W3C//DTD SVG 1.1//EN"
 "http://www.w3.org/Graphics/SVG/1.1/DTD/svg11.dtd">
<!-- Generated by graphviz version 2.32.0 (20130809.0543)
 -->
<!-- Title: controllers_diagram Pages: 1 -->
<svg width="1294pt" height="886pt"
 viewBox="0.00 0.00 1294.42 886.00" xmlns="http://www.w3.org/2000/svg" xmlns:xlink="http://www.w3.org/1999/xlink">
<g id="graph0" class="graph" transform="scale(1 1) rotate(0) translate(4 882)">
<title>controllers_diagram</title>
<polygon fill="white" stroke="white" points="-4,5 -4,-882 1291.42,-882 1291.42,5 -4,5"/>
<!-- _diagram_info -->
<g id="node1" class="node"><title>_diagram_info</title>
<text text-anchor="start" x="1088" y="-861" font-family="Times,serif" font-size="13.00">Controllers diagram</text>
<text text-anchor="start" x="1088" y="-845.4" font-family="Times,serif" font-size="13.00">Date: Nov 19 2013 &#45; 14:39</text>
<text text-anchor="start" x="1088" y="-829.8" font-family="Times,serif" font-size="13.00">Migration version: 20131118230630</text>
<text text-anchor="start" x="1088" y="-814.2" font-family="Times,serif" font-size="13.00">Generated by RailRoady 1.1.1</text>
<text text-anchor="start" x="1088" y="-798.6" font-family="Times,serif" font-size="13.00">http://railroady.prestonlee.com</text>
</g>
<!-- AccountController -->
<g id="node2" class="node"><title>AccountController</title>
<ellipse fill="none" stroke="black" cx="103.29" cy="-69.4576" rx="83.3895" ry="18"/>
<text text-anchor="middle" x="103.29" y="-63.8576" font-family="Times,serif" font-size="14.00">AccountController</text>
</g>
<!-- ApplicationController -->
<g id="node3" class="node"><title>ApplicationController</title>
<ellipse fill="none" stroke="black" cx="628.16" cy="-322.435" rx="96.1448" ry="18"/>
<text text-anchor="middle" x="628.16" y="-316.835" font-family="Times,serif" font-size="14.00">ApplicationController</text>
</g>
<!-- ApplicationController&#45;&gt;AccountController -->
<g id="edge1" class="edge"><title>ApplicationController&#45;&gt;AccountController</title>
<path fill="none" stroke="black" d="M589.321,-305.901C548.599,-288.408 482.874,-259.726 426.911,-233.25 318.759,-182.085 192.881,-116.644 135.163,-86.3022"/>
</g>
<!-- AudioController -->
<g id="node4" class="node"><title>AudioController</title>
<ellipse fill="none" stroke="black" cx="594.482" cy="-18" rx="74.7448" ry="18"/>
<text text-anchor="middle" x="594.482" y="-12.4" font-family="Times,serif" font-size="14.00">AudioController</text>
</g>
<!-- ApplicationController&#45;&gt;AudioController -->
<g id="edge2" class="edge"><title>ApplicationController&#45;&gt;AudioController</title>
<path fill="none" stroke="black" d="M622.49,-304.456C614.117,-276.848 598.86,-222.199 593.497,-174.485 587.914,-124.809 590.865,-65.7017 592.967,-36.3835"/>
</g>
<!-- BasketsController -->
<g id="node5" class="node"><title>BasketsController</title>
<ellipse fill="none" stroke="black" cx="667.9" cy="-636.96" rx="80.543" ry="18"/>
<text text-anchor="middle" x="667.9" y="-631.36" font-family="Times,serif" font-size="14.00">BasketsController</text>
</g>
<!-- ApplicationController&#45;&gt;BasketsController -->
<g id="edge3" class="edge"><title>ApplicationController&#45;&gt;BasketsController</title>
<path fill="none" stroke="black" d="M627.109,-340.622C625.939,-365.375 624.707,-411.022 628.799,-449.69 635.457,-512.61 653.858,-585.587 662.838,-618.812"/>
</g>
<!-- ChoicesController -->
<g id="node6" class="node"><title>ChoicesController</title>
<ellipse fill="none" stroke="black" cx="903.026" cy="-429.355" rx="81.6834" ry="18"/>
<text text-anchor="middle" x="903.026" y="-423.755" font-family="Times,serif" font-size="14.00">ChoicesController</text>
</g>
<!-- ApplicationController&#45;&gt;ChoicesController -->
<g id="edge4" class="edge"><title>ApplicationController&#45;&gt;ChoicesController</title>
<path fill="none" stroke="black" d="M669.906,-338.674C722.169,-359.004 811.083,-393.59 862.681,-413.661"/>
</g>
<!-- CommentsController -->
<g id="node7" class="node"><title>CommentsController</title>
<ellipse fill="none" stroke="black" cx="492.059" cy="-427.65" rx="92.6566" ry="18"/>
<text text-anchor="middle" x="492.059" y="-422.05" font-family="Times,serif" font-size="14.00">CommentsController</text>
</g>
<!-- ApplicationController&#45;&gt;CommentsController -->
<g id="edge5" class="edge"><title>ApplicationController&#45;&gt;CommentsController</title>
<path fill="none" stroke="black" d="M605.379,-340.046C580.256,-359.468 540.066,-390.537 514.913,-409.982"/>
</g>
<!-- ConfigureController -->
<g id="node8" class="node"><title>ConfigureController</title>
<ellipse fill="none" stroke="black" cx="367.634" cy="-44.7795" rx="89.2157" ry="18"/>
<text text-anchor="middle" x="367.634" y="-39.1795" font-family="Times,serif" font-size="14.00">ConfigureController</text>
</g>
<!-- ApplicationController&#45;&gt;ConfigureController -->
<g id="edge6" class="edge"><title>ApplicationController&#45;&gt;ConfigureController</title>
<path fill="none" stroke="black" d="M624.997,-304.276C620.521,-282.532 610.703,-245.786 591.92,-219.685 539.283,-146.539 447.71,-88.7941 399.466,-61.6653"/>
</g>
<!-- ContentTypesController -->
<g id="node9" class="node"><title>ContentTypesController</title>
<ellipse fill="none" stroke="black" cx="1002.4" cy="-236.16" rx="104.47" ry="18"/>
<text text-anchor="middle" x="1002.4" y="-230.56" font-family="Times,serif" font-size="14.00">ContentTypesController</text>
</g>
<!-- ApplicationController&#45;&gt;ContentTypesController -->
<g id="edge7" class="edge"><title>ApplicationController&#45;&gt;ContentTypesController</title>
<path fill="none" stroke="black" d="M712.497,-313.619C763.376,-307.167 829.172,-296.806 886.204,-281.364 913.262,-274.037 942.679,-262.556 965.145,-252.998"/>
</g>
<!-- DocumentsController -->
<g id="node10" class="node"><title>DocumentsController</title>
<ellipse fill="none" stroke="black" cx="495.609" cy="-219.513" rx="94.9291" ry="18"/>
<text text-anchor="middle" x="495.609" y="-213.913" font-family="Times,serif" font-size="14.00">DocumentsController</text>
</g>
<!-- ApplicationController&#45;&gt;DocumentsController -->
<g id="edge8" class="edge"><title>ApplicationController&#45;&gt;DocumentsController</title>
<path fill="none" stroke="black" d="M605.374,-304.742C581.095,-285.891 542.876,-256.215 518.542,-237.32"/>
</g>
<!-- ImagesController -->
<g id="node11" class="node"><title>ImagesController</title>
<ellipse fill="none" stroke="black" cx="843.803" cy="-34.4698" rx="78.7327" ry="18"/>
<text text-anchor="middle" x="843.803" y="-28.8698" font-family="Times,serif" font-size="14.00">ImagesController</text>
</g>
<!-- ApplicationController&#45;&gt;ImagesController -->
<g id="edge9" class="edge"><title>ApplicationController&#45;&gt;ImagesController</title>
<path fill="none" stroke="black" d="M649.22,-304.788C679.462,-278.666 735.676,-227.116 773.242,-174.633 802.102,-134.315 825.59,-80.4809 836.758,-52.7272"/>
</g>
<!-- ImportersController -->
<g id="node12" class="node"><title>ImportersController</title>
<ellipse fill="none" stroke="black" cx="683.37" cy="-174.559" rx="88.047" ry="18"/>
<text text-anchor="middle" x="683.37" y="-168.959" font-family="Times,serif" font-size="14.00">ImportersController</text>
</g>
<!-- ApplicationController&#45;&gt;ImportersController -->
<g id="edge10" class="edge"><title>ApplicationController&#45;&gt;ImportersController</title>
<path fill="none" stroke="black" d="M634.93,-304.303C645.526,-275.921 665.914,-221.313 676.545,-192.84"/>
</g>
<!-- IndexPageController -->
<g id="node13" class="node"><title>IndexPageController</title>
<ellipse fill="none" stroke="black" cx="91.5757" cy="-342.858" rx="91.4781" ry="18"/>
<text text-anchor="middle" x="91.5757" y="-337.258" font-family="Times,serif" font-size="14.00">IndexPageController</text>
</g>
<!-- ApplicationController&#45;&gt;IndexPageController -->
<g id="edge11" class="edge"><title>ApplicationController&#45;&gt;IndexPageController</title>
<path fill="none" stroke="black" d="M533.772,-326.028C434.386,-329.81 279.054,-335.722 181.416,-339.439"/>
</g>
<!-- MembersController -->
<g id="node14" class="node"><title>MembersController</title>
<ellipse fill="none" stroke="black" cx="1165.76" cy="-373.735" rx="87.4061" ry="18"/>
<text text-anchor="middle" x="1165.76" y="-368.135" font-family="Times,serif" font-size="14.00">MembersController</text>
</g>
<!-- ApplicationController&#45;&gt;MembersController -->
<g id="edge12" class="edge"><title>ApplicationController&#45;&gt;MembersController</title>
<path fill="none" stroke="black" d="M714.237,-330.649C816.871,-340.443 986.993,-356.676 1086.52,-366.173"/>
</g>
<!-- ModerateController -->
<g id="node15" class="node"><title>ModerateController</title>
<ellipse fill="none" stroke="black" cx="1123.05" cy="-624.136" rx="87.9625" ry="18"/>
<text text-anchor="middle" x="1123.05" y="-618.536" font-family="Times,serif" font-size="14.00">ModerateController</text>
</g>
<!-- ApplicationController&#45;&gt;ModerateController -->
<g id="edge13" class="edge"><title>ApplicationController&#45;&gt;ModerateController</title>
<path fill="none" stroke="black" d="M656.545,-339.74C743.834,-392.954 1007.65,-553.782 1094.78,-606.902"/>
</g>
<!-- PingController -->
<g id="node16" class="node"><title>PingController</title>
<ellipse fill="none" stroke="black" cx="858.953" cy="-634.88" rx="68.3813" ry="18"/>
<text text-anchor="middle" x="858.953" y="-629.28" font-family="Times,serif" font-size="14.00">PingController</text>
</g>
<!-- ApplicationController&#45;&gt;PingController -->
<g id="edge14" class="edge"><title>ApplicationController&#45;&gt;PingController</title>
<path fill="none" stroke="black" d="M655.855,-339.825C689.07,-361.881 744.62,-402.753 779.508,-449.769 819.833,-504.113 844.586,-582.062 854.27,-616.884"/>
</g>
<!-- PrivateFilesController -->
<g id="node17" class="node"><title>PrivateFilesController</title>
<ellipse fill="none" stroke="black" cx="816.76" cy="-267.469" rx="96.7292" ry="18"/>
<text text-anchor="middle" x="816.76" y="-261.869" font-family="Times,serif" font-size="14.00">PrivateFilesController</text>
</g>
<!-- ApplicationController&#45;&gt;PrivateFilesController -->
<g id="edge15" class="edge"><title>ApplicationController&#45;&gt;PrivateFilesController</title>
<path fill="none" stroke="black" d="M680.195,-307.27C706.472,-299.612 738.269,-290.345 764.568,-282.68"/>
</g>
<!-- SearchController -->
<g id="node18" class="node"><title>SearchController</title>
<ellipse fill="none" stroke="black" cx="1137.25" cy="-57.4181" rx="77.0072" ry="18"/>
<text text-anchor="middle" x="1137.25" y="-51.8181" font-family="Times,serif" font-size="14.00">SearchController</text>
</g>
<!-- ApplicationController&#45;&gt;SearchController -->
<g id="edge16" class="edge"><title>ApplicationController&#45;&gt;SearchController</title>
<path fill="none" stroke="black" d="M655.423,-304.977C673.122,-293.848 696.811,-279.332 718.296,-267.418 858.111,-189.883 1030.13,-107.649 1102.53,-73.612"/>
</g>
<!-- TagsController -->
<g id="node19" class="node"><title>TagsController</title>
<ellipse fill="none" stroke="black" cx="326.933" cy="-583.695" rx="68.655" ry="18"/>
<text text-anchor="middle" x="326.933" y="-578.095" font-family="Times,serif" font-size="14.00">TagsController</text>
</g>
<!-- ApplicationController&#45;&gt;TagsController -->
<g id="edge17" class="edge"><title>ApplicationController&#45;&gt;TagsController</title>
<path fill="none" stroke="black" d="M624.662,-340.695C619.549,-363.316 608.161,-402.024 586.232,-427.843 525.712,-499.102 423.992,-546.615 367.624,-568.952"/>
</g>
<!-- TopicTypesController -->
<g id="node20" class="node"><title>TopicTypesController</title>
<ellipse fill="none" stroke="black" cx="95.5065" cy="-610.179" rx="95.513" ry="18"/>
<text text-anchor="middle" x="95.5065" y="-604.579" font-family="Times,serif" font-size="14.00">TopicTypesController</text>
</g>
<!-- ApplicationController&#45;&gt;TopicTypesController -->
<g id="edge18" class="edge"><title>ApplicationController&#45;&gt;TopicTypesController</title>
<path fill="none" stroke="black" d="M590.393,-339.074C549.687,-357.104 483.069,-386.889 426.122,-413.655 307.073,-469.61 175.464,-555.824 121.125,-592.591"/>
</g>
<!-- TopicsController -->
<g id="node21" class="node"><title>TopicsController</title>
<ellipse fill="none" stroke="black" cx="495.379" cy="-641.968" rx="76.1779" ry="18"/>
<text text-anchor="middle" x="495.379" y="-636.368" font-family="Times,serif" font-size="14.00">TopicsController</text>
</g>
<!-- ApplicationController&#45;&gt;TopicsController -->
<g id="edge19" class="edge"><title>ApplicationController&#45;&gt;TopicsController</title>
<path fill="none" stroke="black" d="M621.161,-340.39C612.936,-361.408 598.809,-397.24 586.232,-427.843 556.223,-500.864 519.063,-587.234 503.175,-623.978"/>
</g>
<!-- VideoController -->
<g id="node22" class="node"><title>VideoController</title>
<ellipse fill="none" stroke="black" cx="704.154" cy="-449.73" rx="73.5104" ry="18"/>
<text text-anchor="middle" x="704.154" y="-444.13" font-family="Times,serif" font-size="14.00">VideoController</text>
</g>
<!-- ApplicationController&#45;&gt;VideoController -->
<g id="edge20" class="edge"><title>ApplicationController&#45;&gt;VideoController</title>
<path fill="none" stroke="black" d="M638.887,-340.404C653.37,-364.664 679.026,-407.639 693.481,-431.853"/>
</g>
<!-- WebLinksController -->
<g id="node23" class="node"><title>WebLinksController</title>
<ellipse fill="none" stroke="black" cx="326.127" cy="-305.552" rx="90.3756" ry="18"/>
<text text-anchor="middle" x="326.127" y="-299.952" font-family="Times,serif" font-size="14.00">WebLinksController</text>
</g>
<!-- ApplicationController&#45;&gt;WebLinksController -->
<g id="edge21" class="edge"><title>ApplicationController&#45;&gt;WebLinksController</title>
<path fill="none" stroke="black" d="M535.487,-317.255C496.558,-315.079 451.516,-312.561 413.206,-310.42"/>
</g>
</g>
</svg>
