<?xml version="1.0" encoding="UTF-8" standalone="no"?>
<!DOCTYPE svg PUBLIC "-//W3C//DTD SVG 1.1//EN"
 "http://www.w3.org/Graphics/SVG/1.1/DTD/svg11.dtd">
<!-- Generated by graphviz version 2.30.1 (20130805.0028)
 -->
<!-- Title: controllers_diagram Pages: 1 -->
<svg width="1323pt" height="844pt"
 viewBox="0.00 0.00 1323.19 844.00" xmlns="http://www.w3.org/2000/svg" xmlns:xlink="http://www.w3.org/1999/xlink">
<g id="graph0" class="graph" transform="scale(1 1) rotate(0) translate(4 840)">
<title>controllers_diagram</title>
<polygon fill="white" stroke="white" points="-4,5 -4,-840 1320.19,-840 1320.19,5 -4,5"/>
<!-- _diagram_info -->
<g id="node1" class="node"><title>_diagram_info</title>
<text text-anchor="start" x="1058" y="-819" font-family="Times,serif" font-size="13.00">Controllers diagram</text>
<text text-anchor="start" x="1058" y="-803.4" font-family="Times,serif" font-size="13.00">Date: Nov 13 2013 &#45; 17:08</text>
<text text-anchor="start" x="1058" y="-787.8" font-family="Times,serif" font-size="13.00">Migration version: 20120621074113</text>
<text text-anchor="start" x="1058" y="-772.2" font-family="Times,serif" font-size="13.00">Generated by RailRoady 1.1.1</text>
<text text-anchor="start" x="1058" y="-756.6" font-family="Times,serif" font-size="13.00">http://railroady.prestonlee.com</text>
</g>
<!-- AccountController -->
<g id="node2" class="node"><title>AccountController</title>
<ellipse fill="none" stroke="black" cx="92.886" cy="-61.4864" rx="83.3895" ry="18"/>
<text text-anchor="middle" x="92.886" y="-55.8864" font-family="Times,serif" font-size="14.00">AccountController</text>
</g>
<!-- ApplicationController -->
<g id="node3" class="node"><title>ApplicationController</title>
<ellipse fill="none" stroke="black" cx="615.347" cy="-320.982" rx="96.1448" ry="18"/>
<text text-anchor="middle" x="615.347" y="-315.382" font-family="Times,serif" font-size="14.00">ApplicationController</text>
</g>
<!-- ApplicationController&#45;&gt;AccountController -->
<g id="edge1" class="edge"><title>ApplicationController&#45;&gt;AccountController</title>
<path fill="none" stroke="black" d="M581.067,-303.956C486.06,-256.768 220.206,-124.724 126.276,-78.0704"/>
</g>
<!-- AudioController -->
<g id="node4" class="node"><title>AudioController</title>
<ellipse fill="none" stroke="black" cx="616.52" cy="-18.3703" rx="74.7448" ry="18"/>
<text text-anchor="middle" x="616.52" y="-12.7703" font-family="Times,serif" font-size="14.00">AudioController</text>
</g>
<!-- ApplicationController&#45;&gt;AudioController -->
<g id="edge2" class="edge"><title>ApplicationController&#45;&gt;AudioController</title>
<path fill="none" stroke="black" d="M615.417,-302.958C615.625,-249.263 616.24,-90.7501 616.449,-36.6819"/>
</g>
<!-- BasketsController -->
<g id="node5" class="node"><title>BasketsController</title>
<ellipse fill="none" stroke="black" cx="625.12" cy="-659.166" rx="80.543" ry="18"/>
<text text-anchor="middle" x="625.12" y="-653.566" font-family="Times,serif" font-size="14.00">BasketsController</text>
</g>
<!-- ApplicationController&#45;&gt;BasketsController -->
<g id="edge3" class="edge"><title>ApplicationController&#45;&gt;BasketsController</title>
<path fill="none" stroke="black" d="M629.426,-339.133C649.435,-366.685 684.022,-421.501 687.018,-474.718 690.615,-538.625 654.97,-608.987 636.208,-641.231"/>
</g>
<!-- CommentsController -->
<g id="node6" class="node"><title>CommentsController</title>
<ellipse fill="none" stroke="black" cx="794.641" cy="-394.067" rx="92.6566" ry="18"/>
<text text-anchor="middle" x="794.641" y="-388.467" font-family="Times,serif" font-size="14.00">CommentsController</text>
</g>
<!-- ApplicationController&#45;&gt;CommentsController -->
<g id="edge4" class="edge"><title>ApplicationController&#45;&gt;CommentsController</title>
<path fill="none" stroke="black" d="M655.584,-337.384C685.112,-349.42 725.042,-365.696 754.538,-377.72"/>
</g>
<!-- ConfigureController -->
<g id="node7" class="node"><title>ConfigureController</title>
<ellipse fill="none" stroke="black" cx="415.92" cy="-406.571" rx="89.2157" ry="18"/>
<text text-anchor="middle" x="415.92" y="-400.971" font-family="Times,serif" font-size="14.00">ConfigureController</text>
</g>
<!-- ApplicationController&#45;&gt;ConfigureController -->
<g id="edge5" class="edge"><title>ApplicationController&#45;&gt;ConfigureController</title>
<path fill="none" stroke="black" d="M576.422,-337.687C541.056,-352.866 489.192,-375.124 454.069,-390.198"/>
</g>
<!-- ContentTypesController -->
<g id="node8" class="node"><title>ContentTypesController</title>
<ellipse fill="none" stroke="black" cx="369.615" cy="-24.7689" rx="104.47" ry="18"/>
<text text-anchor="middle" x="369.615" y="-19.1689" font-family="Times,serif" font-size="14.00">ContentTypesController</text>
</g>
<!-- ApplicationController&#45;&gt;ContentTypesController -->
<g id="edge6" class="edge"><title>ApplicationController&#45;&gt;ContentTypesController</title>
<path fill="none" stroke="black" d="M614.089,-302.774C611.624,-277.808 604.43,-232.366 583.684,-200.028 536.611,-126.652 448.683,-69.2254 401.492,-42.0155"/>
</g>
<!-- DocumentsController -->
<g id="node9" class="node"><title>DocumentsController</title>
<ellipse fill="none" stroke="black" cx="1194.14" cy="-309.546" rx="94.9291" ry="18"/>
<text text-anchor="middle" x="1194.14" y="-303.946" font-family="Times,serif" font-size="14.00">DocumentsController</text>
</g>
<!-- ApplicationController&#45;&gt;DocumentsController -->
<g id="edge7" class="edge"><title>ApplicationController&#45;&gt;DocumentsController</title>
<path fill="none" stroke="black" d="M711.247,-319.087C818.87,-316.961 992.385,-313.532 1099.49,-311.416"/>
</g>
<!-- ImagesController -->
<g id="node10" class="node"><title>ImagesController</title>
<ellipse fill="none" stroke="black" cx="503.468" cy="-199.954" rx="78.7327" ry="18"/>
<text text-anchor="middle" x="503.468" y="-194.354" font-family="Times,serif" font-size="14.00">ImagesController</text>
</g>
<!-- ApplicationController&#45;&gt;ImagesController -->
<g id="edge8" class="edge"><title>ApplicationController&#45;&gt;ImagesController</title>
<path fill="none" stroke="black" d="M598.839,-303.124C577.686,-280.242 541.229,-240.803 520.044,-217.885"/>
</g>
<!-- ImportersController -->
<g id="node11" class="node"><title>ImportersController</title>
<ellipse fill="none" stroke="black" cx="867.222" cy="-18" rx="88.047" ry="18"/>
<text text-anchor="middle" x="867.222" y="-12.4" font-family="Times,serif" font-size="14.00">ImportersController</text>
</g>
<!-- ApplicationController&#45;&gt;ImportersController -->
<g id="edge9" class="edge"><title>ApplicationController&#45;&gt;ImportersController</title>
<path fill="none" stroke="black" d="M615.338,-302.784C616.127,-276.831 620.63,-228.558 641.853,-194.444 689.494,-117.864 782.866,-61.1807 833.176,-34.675"/>
</g>
<!-- IndexPageController -->
<g id="node12" class="node"><title>IndexPageController</title>
<ellipse fill="none" stroke="black" cx="734.94" cy="-194.537" rx="91.4781" ry="18"/>
<text text-anchor="middle" x="734.94" y="-188.937" font-family="Times,serif" font-size="14.00">IndexPageController</text>
</g>
<!-- ApplicationController&#45;&gt;IndexPageController -->
<g id="edge10" class="edge"><title>ApplicationController&#45;&gt;IndexPageController</title>
<path fill="none" stroke="black" d="M632.228,-303.134C655.021,-279.035 695.397,-236.346 718.145,-212.294"/>
</g>
<!-- MembersController -->
<g id="node13" class="node"><title>MembersController</title>
<ellipse fill="none" stroke="black" cx="87.2028" cy="-343.774" rx="87.4061" ry="18"/>
<text text-anchor="middle" x="87.2028" y="-338.174" font-family="Times,serif" font-size="14.00">MembersController</text>
</g>
<!-- ApplicationController&#45;&gt;MembersController -->
<g id="edge11" class="edge"><title>ApplicationController&#45;&gt;MembersController</title>
<path fill="none" stroke="black" d="M521.23,-325.044C422.326,-329.312 268.119,-335.967 172.617,-340.088"/>
</g>
<!-- ModerateController -->
<g id="node14" class="node"><title>ModerateController</title>
<ellipse fill="none" stroke="black" cx="983.066" cy="-423.848" rx="87.9625" ry="18"/>
<text text-anchor="middle" x="983.066" y="-418.248" font-family="Times,serif" font-size="14.00">ModerateController</text>
</g>
<!-- ApplicationController&#45;&gt;ModerateController -->
<g id="edge12" class="edge"><title>ApplicationController&#45;&gt;ModerateController</title>
<path fill="none" stroke="black" d="M679.654,-334.467C729.659,-345.434 800.571,-362.039 861.686,-380.302 888.821,-388.411 918.777,-399.139 942.141,-407.917"/>
</g>
<!-- OaiPmhRepositoryController -->
<g id="node15" class="node"><title>OaiPmhRepositoryController</title>
<ellipse fill="none" stroke="black" cx="1190.43" cy="-598.722" rx="124.53" ry="18"/>
<text text-anchor="middle" x="1190.43" y="-593.122" font-family="Times,serif" font-size="14.00">OaiPmhRepositoryController</text>
</g>
<!-- ApplicationController&#45;&gt;OaiPmhRepositoryController -->
<g id="edge13" class="edge"><title>ApplicationController&#45;&gt;OaiPmhRepositoryController</title>
<path fill="none" stroke="black" d="M633.588,-338.85C650.164,-354.525 675.738,-377.342 700.465,-393.933 711.715,-401.482 715.294,-402.155 727.596,-407.831 878.93,-477.657 1063.22,-549.977 1146.2,-581.88"/>
</g>
<!-- PingController -->
<g id="node16" class="node"><title>PingController</title>
<ellipse fill="none" stroke="black" cx="780.537" cy="-613.291" rx="68.3813" ry="18"/>
<text text-anchor="middle" x="780.537" y="-607.691" font-family="Times,serif" font-size="14.00">PingController</text>
</g>
<!-- ApplicationController&#45;&gt;PingController -->
<g id="edge14" class="edge"><title>ApplicationController&#45;&gt;PingController</title>
<path fill="none" stroke="black" d="M625.681,-339.267C655.417,-391.887 740.952,-543.245 770.418,-595.386"/>
</g>
<!-- PrivateFilesController -->
<g id="node17" class="node"><title>PrivateFilesController</title>
<ellipse fill="none" stroke="black" cx="943.879" cy="-220.394" rx="96.7292" ry="18"/>
<text text-anchor="middle" x="943.879" y="-214.794" font-family="Times,serif" font-size="14.00">PrivateFilesController</text>
</g>
<!-- ApplicationController&#45;&gt;PrivateFilesController -->
<g id="edge15" class="edge"><title>ApplicationController&#45;&gt;PrivateFilesController</title>
<path fill="none" stroke="black" d="M665.602,-305.595C727.345,-286.691 831.495,-254.803 893.36,-235.861"/>
</g>
<!-- SearchController -->
<g id="node18" class="node"><title>SearchController</title>
<ellipse fill="none" stroke="black" cx="1160.79" cy="-46.4601" rx="77.0072" ry="18"/>
<text text-anchor="middle" x="1160.79" y="-40.8601" font-family="Times,serif" font-size="14.00">SearchController</text>
</g>
<!-- ApplicationController&#45;&gt;SearchController -->
<g id="edge16" class="edge"><title>ApplicationController&#45;&gt;SearchController</title>
<path fill="none" stroke="black" d="M649.055,-304.017C747.187,-254.627 1031.83,-111.367 1128.34,-62.7913"/>
</g>
<!-- SystemSettingsController -->
<g id="node19" class="node"><title>SystemSettingsController</title>
<ellipse fill="none" stroke="black" cx="288.8" cy="-588.033" rx="110.078" ry="18"/>
<text text-anchor="middle" x="288.8" y="-582.433" font-family="Times,serif" font-size="14.00">SystemSettingsController</text>
</g>
<!-- ApplicationController&#45;&gt;SystemSettingsController -->
<g id="edge17" class="edge"><title>ApplicationController&#45;&gt;SystemSettingsController</title>
<path fill="none" stroke="black" d="M593.669,-338.711C534.411,-387.172 370.186,-521.476 310.685,-570.136"/>
</g>
<!-- TagsController -->
<g id="node20" class="node"><title>TagsController</title>
<ellipse fill="none" stroke="black" cx="76.2306" cy="-610.805" rx="68.655" ry="18"/>
<text text-anchor="middle" x="76.2306" y="-605.205" font-family="Times,serif" font-size="14.00">TagsController</text>
</g>
<!-- ApplicationController&#45;&gt;TagsController -->
<g id="edge18" class="edge"><title>ApplicationController&#45;&gt;TagsController</title>
<path fill="none" stroke="black" d="M595.422,-338.612C574.296,-356.838 539.534,-385.526 506.877,-406.6 371.999,-493.64 194.234,-566.031 116.04,-595.99"/>
</g>
<!-- TopicTypesController -->
<g id="node21" class="node"><title>TopicTypesController</title>
<ellipse fill="none" stroke="black" cx="453.583" cy="-637.555" rx="95.513" ry="18"/>
<text text-anchor="middle" x="453.583" y="-631.955" font-family="Times,serif" font-size="14.00">TopicTypesController</text>
</g>
<!-- ApplicationController&#45;&gt;TopicTypesController -->
<g id="edge19" class="edge"><title>ApplicationController&#45;&gt;TopicTypesController</title>
<path fill="none" stroke="black" d="M604.894,-339.245C588.626,-367.844 556.488,-425.055 531.141,-474.608 504.603,-526.489 475.686,-588.999 461.856,-619.305"/>
</g>
<!-- TopicsController -->
<g id="node22" class="node"><title>TopicsController</title>
<ellipse fill="none" stroke="black" cx="609.079" cy="-474.663" rx="76.1779" ry="18"/>
<text text-anchor="middle" x="609.079" y="-469.063" font-family="Times,serif" font-size="14.00">TopicsController</text>
</g>
<!-- ApplicationController&#45;&gt;TopicsController -->
<g id="edge20" class="edge"><title>ApplicationController&#45;&gt;TopicsController</title>
<path fill="none" stroke="black" d="M614.604,-339.215C613.397,-368.792 611.028,-426.892 609.822,-456.454"/>
</g>
<!-- VideoController -->
<g id="node23" class="node"><title>VideoController</title>
<ellipse fill="none" stroke="black" cx="301.71" cy="-249.773" rx="73.5104" ry="18"/>
<text text-anchor="middle" x="301.71" y="-244.173" font-family="Times,serif" font-size="14.00">VideoController</text>
</g>
<!-- ApplicationController&#45;&gt;VideoController -->
<g id="edge21" class="edge"><title>ApplicationController&#45;&gt;VideoController</title>
<path fill="none" stroke="black" d="M554.13,-307.083C496.549,-294.01 411.16,-274.623 355.965,-262.091"/>
</g>
<!-- WebLinksController -->
<g id="node24" class="node"><title>WebLinksController</title>
<ellipse fill="none" stroke="black" cx="953.69" cy="-641.34" rx="90.3756" ry="18"/>
<text text-anchor="middle" x="953.69" y="-635.74" font-family="Times,serif" font-size="14.00">WebLinksController</text>
</g>
<!-- ApplicationController&#45;&gt;WebLinksController -->
<g id="edge22" class="edge"><title>ApplicationController&#45;&gt;WebLinksController</title>
<path fill="none" stroke="black" d="M634.02,-338.662C693.174,-394.672 876.001,-567.78 935.075,-623.714"/>
</g>
</g>
</svg>
