<?xml version="1.0" encoding="UTF-8" standalone="no"?>
<!DOCTYPE svg PUBLIC "-//W3C//DTD SVG 1.1//EN"
 "http://www.w3.org/Graphics/SVG/1.1/DTD/svg11.dtd">
<!-- Generated by graphviz version 2.32.0 (20130809.0543)
 -->
<!-- Title: models_diagram Pages: 1 -->
<svg width="3253pt" height="332pt"
 viewBox="0.00 0.00 3252.76 332.00" xmlns="http://www.w3.org/2000/svg" xmlns:xlink="http://www.w3.org/1999/xlink">
<g id="graph0" class="graph" transform="scale(1 1) rotate(0) translate(4 328)">
<title>models_diagram</title>
<polygon fill="white" stroke="white" points="-4,5 -4,-328 3249.76,-328 3249.76,5 -4,5"/>
<!-- _diagram_info -->
<g id="node1" class="node"><title>_diagram_info</title>
<text text-anchor="start" x="1298.31" y="-307" font-family="Times,serif" font-size="13.00">Models diagram</text>
<text text-anchor="start" x="1298.31" y="-291.4" font-family="Times,serif" font-size="13.00">Date: Nov 11 2013 &#45; 10:29</text>
<text text-anchor="start" x="1298.31" y="-275.8" font-family="Times,serif" font-size="13.00">Migration version: 20120621074113</text>
<text text-anchor="start" x="1298.31" y="-260.2" font-family="Times,serif" font-size="13.00">Generated by RailRoady 1.1.1</text>
<text text-anchor="start" x="1298.31" y="-244.6" font-family="Times,serif" font-size="13.00">http://railroady.prestonlee.com</text>
</g>
<!-- Basket -->
<g id="node2" class="node"><title>Basket</title>
<ellipse fill="none" stroke="black" cx="1016.76" cy="-182" rx="36.9811" ry="18"/>
<text text-anchor="middle" x="1016.76" y="-176.4" font-family="Times,serif" font-size="14.00">Basket</text>
</g>
<!-- ProfileMapping -->
<g id="node11" class="node"><title>ProfileMapping</title>
<ellipse fill="none" stroke="black" cx="88.7636" cy="-92" rx="71.4914" ry="18"/>
<text text-anchor="middle" x="88.7636" y="-86.4" font-family="Times,serif" font-size="14.00">ProfileMapping</text>
</g>
<!-- Basket&#45;&gt;ProfileMapping -->
<g id="edge12" class="edge"><title>Basket&#45;&gt;ProfileMapping</title>
<path fill="none" stroke="#5abf8c" d="M981.459,-166.89C977.561,-165.736 973.61,-164.733 969.764,-164 836.546,-138.617 494.583,-160.669 359.764,-146 285.959,-137.97 202.278,-120.26 147.678,-107.521"/>
<ellipse fill="none" stroke="#5abf8c" cx="985.533" cy="-168.206" rx="4.00001" ry="4.00001"/>
<polygon fill="#5abf8c" stroke="#5abf8c" points="147.564,-107.494 138.861,-100.823 142.697,-106.349 137.83,-105.203 137.83,-105.203 137.83,-105.203 142.697,-106.349 136.799,-109.583 147.564,-107.494 147.564,-107.494"/>
</g>
<!-- Role -->
<g id="node13" class="node"><title>Role</title>
<ellipse fill="none" stroke="black" cx="1359.76" cy="-92" rx="28.9157" ry="18"/>
<text text-anchor="middle" x="1359.76" y="-86.4" font-family="Times,serif" font-size="14.00">Role</text>
</g>
<!-- Basket&#45;&gt;Role -->
<g id="edge1" class="edge"><title>Basket&#45;&gt;Role</title>
<path fill="none" stroke="#ebe2f8" d="M1061.48,-177.854C1097.95,-173.95 1150.05,-165.259 1191.76,-146 1203.49,-140.584 1202.78,-133.243 1214.59,-128 1258.33,-108.579 1274.89,-123.663 1320.76,-110 1323.18,-109.28 1325.64,-108.451 1328.1,-107.553"/>
<ellipse fill="none" stroke="#ebe2f8" cx="1057.47" cy="-178.259" rx="4" ry="4"/>
<polygon fill="#ebe2f8" stroke="#ebe2f8" points="1328.14,-107.539 1339.09,-108.023 1332.78,-105.69 1337.43,-103.842 1337.43,-103.842 1337.43,-103.842 1332.78,-105.69 1335.76,-99.6606 1328.14,-107.539 1328.14,-107.539"/>
<text text-anchor="middle" x="1256.35" y="-131.4" font-family="Times,serif" font-size="14.00">accepted_roles</text>
</g>
<!-- Topic -->
<g id="node20" class="node"><title>Topic</title>
<ellipse fill="none" stroke="black" cx="1279.76" cy="-92" rx="32.3327" ry="18"/>
<text text-anchor="middle" x="1279.76" y="-86.4" font-family="Times,serif" font-size="14.00">Topic</text>
</g>
<!-- Basket&#45;&gt;Topic -->
<g id="edge2" class="edge"><title>Basket&#45;&gt;Topic</title>
<path fill="none" stroke="#9231d8" d="M1047.34,-163.858C1057.12,-158.267 1067.95,-151.963 1077.76,-146 1090.41,-138.316 1091.88,-133.121 1105.76,-128 1161.31,-107.506 1180.55,-125.225 1237.76,-110 1240.38,-109.303 1243.06,-108.487 1245.72,-107.595"/>
<ellipse fill="none" stroke="#9231d8" cx="1043.57" cy="-165.999" rx="4.00002" ry="4.00002"/>
<polygon fill="#9231d8" stroke="#9231d8" points="1245.85,-107.549 1256.78,-108.341 1250.54,-105.832 1255.24,-104.115 1255.24,-104.115 1255.24,-104.115 1250.54,-105.832 1253.69,-99.8883 1245.85,-107.549 1245.85,-107.549"/>
</g>
<!-- Basket&#45;&gt;Topic -->
<g id="edge9" class="edge"><title>Basket&#45;&gt;Topic</title>
<path fill="none" stroke="#8a52fb" d="M1054.6,-168.225C1070,-162.362 1087.69,-154.757 1102.76,-146 1113.96,-139.496 1113.81,-133.192 1125.67,-128 1171.89,-107.764 1189.16,-123.552 1237.76,-110 1241,-109.097 1244.33,-108.021 1247.63,-106.856"/>
<ellipse fill="none" stroke="#8a52fb" cx="1050.53" cy="-169.736" rx="4.00001" ry="4.00001"/>
<ellipse fill="#8a52fb" stroke="#8a52fb" cx="1251.47" cy="-105.418" rx="4.00001" ry="4.00001"/>
<text text-anchor="middle" x="1158.81" y="-131.4" font-family="Times,serif" font-size="14.00">index_topic</text>
</g>
<!-- Comment -->
<g id="node21" class="node"><title>Comment</title>
<ellipse fill="none" stroke="black" cx="227.764" cy="-92" rx="49.1903" ry="18"/>
<text text-anchor="middle" x="227.764" y="-86.4" font-family="Times,serif" font-size="14.00">Comment</text>
</g>
<!-- Basket&#45;&gt;Comment -->
<g id="edge3" class="edge"><title>Basket&#45;&gt;Comment</title>
<path fill="none" stroke="#4b3ee0" d="M981.454,-166.916C977.557,-165.757 973.608,-164.746 969.764,-164 752.776,-121.902 692.383,-170.966 472.764,-146 388.668,-136.44 368.022,-129.925 285.764,-110 281.915,-109.068 277.942,-108.041 273.963,-106.968"/>
<ellipse fill="none" stroke="#4b3ee0" cx="985.527" cy="-168.236" rx="4.00001" ry="4.00001"/>
<polygon fill="#4b3ee0" stroke="#4b3ee0" points="273.764,-106.913 265.337,-99.8969 268.947,-105.573 264.13,-104.232 264.13,-104.232 264.13,-104.232 268.947,-105.573 262.924,-108.568 273.764,-106.913 273.764,-106.913"/>
</g>
<!-- Document -->
<g id="node22" class="node"><title>Document</title>
<ellipse fill="none" stroke="black" cx="345.764" cy="-92" rx="50.8959" ry="18"/>
<text text-anchor="middle" x="345.764" y="-86.4" font-family="Times,serif" font-size="14.00">Document</text>
</g>
<!-- Basket&#45;&gt;Document -->
<g id="edge4" class="edge"><title>Basket&#45;&gt;Document</title>
<path fill="none" stroke="#cccf64" d="M981.448,-166.95C977.551,-165.784 973.604,-164.762 969.764,-164 794.776,-129.264 745.634,-169.324 568.764,-146 507.144,-137.874 437.706,-119.935 392.927,-107.182"/>
<ellipse fill="none" stroke="#cccf64" cx="985.52" cy="-168.274" rx="4.00001" ry="4.00001"/>
<polygon fill="#cccf64" stroke="#cccf64" points="392.814,-107.15 384.448,-100.06 388.009,-105.767 383.204,-104.384 383.204,-104.384 383.204,-104.384 388.009,-105.767 381.959,-108.709 392.814,-107.15 392.814,-107.15"/>
</g>
<!-- Video -->
<g id="node23" class="node"><title>Video</title>
<ellipse fill="none" stroke="black" cx="448.764" cy="-92" rx="34.0921" ry="18"/>
<text text-anchor="middle" x="448.764" y="-86.4" font-family="Times,serif" font-size="14.00">Video</text>
</g>
<!-- Basket&#45;&gt;Video -->
<g id="edge5" class="edge"><title>Basket&#45;&gt;Video</title>
<path fill="none" stroke="#5168f9" d="M981.42,-167.083C977.529,-165.891 973.591,-164.827 969.764,-164 870.41,-142.52 842.788,-157.25 741.764,-146 630.196,-133.576 600.255,-138.832 491.764,-110 489.162,-109.309 486.505,-108.507 483.85,-107.635"/>
<ellipse fill="none" stroke="#5168f9" cx="985.491" cy="-168.422" rx="4.00001" ry="4.00001"/>
<polygon fill="#5168f9" stroke="#5168f9" points="483.775,-107.608 475.87,-100.008 479.066,-105.927 474.357,-104.246 474.357,-104.246 474.357,-104.246 479.066,-105.927 472.844,-108.484 483.775,-107.608 483.775,-107.608"/>
</g>
<!-- AudioRecording -->
<g id="node24" class="node"><title>AudioRecording</title>
<ellipse fill="none" stroke="black" cx="575.764" cy="-92" rx="75.1081" ry="18"/>
<text text-anchor="middle" x="575.764" y="-86.4" font-family="Times,serif" font-size="14.00">AudioRecording</text>
</g>
<!-- Basket&#45;&gt;AudioRecording -->
<g id="edge6" class="edge"><title>Basket&#45;&gt;AudioRecording</title>
<path fill="none" stroke="#cd198a" d="M981.06,-167.218C977.279,-166.02 973.464,-164.917 969.764,-164 913.574,-150.079 897.837,-155.681 840.764,-146 771.668,-134.28 692.983,-118.193 639.425,-106.825"/>
<ellipse fill="none" stroke="#cd198a" cx="984.932" cy="-168.513" rx="4.00001" ry="4.00001"/>
<polygon fill="#cd198a" stroke="#cd198a" points="639.172,-106.771 630.329,-100.287 634.282,-105.73 629.392,-104.688 629.392,-104.688 629.392,-104.688 634.282,-105.73 628.454,-109.089 639.172,-106.771 639.172,-106.771"/>
</g>
<!-- StillImage -->
<g id="node25" class="node"><title>StillImage</title>
<ellipse fill="none" stroke="black" cx="720.764" cy="-92" rx="50.9029" ry="18"/>
<text text-anchor="middle" x="720.764" y="-86.4" font-family="Times,serif" font-size="14.00">StillImage</text>
</g>
<!-- Basket&#45;&gt;StillImage -->
<g id="edge7" class="edge"><title>Basket&#45;&gt;StillImage</title>
<path fill="none" stroke="#be1814" d="M980.318,-167.538C976.763,-166.309 973.201,-165.11 969.764,-164 968.536,-163.604 840.975,-127.251 768.935,-106.725"/>
<ellipse fill="none" stroke="#be1814" cx="984.266" cy="-168.926" rx="4.00001" ry="4.00001"/>
<polygon fill="#be1814" stroke="#be1814" points="768.775,-106.679 760.391,-99.6109 763.966,-105.309 759.158,-103.939 759.158,-103.939 759.158,-103.939 763.966,-105.309 757.925,-108.266 768.775,-106.679 768.775,-106.679"/>
</g>
<!-- WebLink -->
<g id="node26" class="node"><title>WebLink</title>
<ellipse fill="none" stroke="black" cx="836.764" cy="-92" rx="46.6035" ry="18"/>
<text text-anchor="middle" x="836.764" y="-86.4" font-family="Times,serif" font-size="14.00">WebLink</text>
</g>
<!-- Basket&#45;&gt;WebLink -->
<g id="edge8" class="edge"><title>Basket&#45;&gt;WebLink</title>
<path fill="none" stroke="#59ad49" d="M983.925,-164.946C952.752,-149.705 905.969,-126.834 873.554,-110.986"/>
<ellipse fill="none" stroke="#59ad49" cx="987.762" cy="-166.822" rx="4.00002" ry="4.00002"/>
<polygon fill="#59ad49" stroke="#59ad49" points="873.387,-110.905 866.38,-102.47 868.895,-108.709 864.404,-106.513 864.404,-106.513 864.404,-106.513 868.895,-108.709 862.427,-110.556 873.387,-110.905 873.387,-110.905"/>
</g>
<!-- Import -->
<g id="node27" class="node"><title>Import</title>
<ellipse fill="none" stroke="black" cx="1830.76" cy="-92" rx="36.9811" ry="18"/>
<text text-anchor="middle" x="1830.76" y="-86.4" font-family="Times,serif" font-size="14.00">Import</text>
</g>
<!-- Basket&#45;&gt;Import -->
<g id="edge10" class="edge"><title>Basket&#45;&gt;Import</title>
<path fill="none" stroke="#5f9339" d="M1061.5,-177.168C1172.47,-167.508 1469.21,-140.729 1715.76,-110 1739,-107.104 1764.79,-103.342 1786.05,-100.093"/>
<ellipse fill="none" stroke="#5f9339" cx="1057.2" cy="-177.541" rx="4" ry="4"/>
<polygon fill="#5f9339" stroke="#5f9339" points="1786.21,-100.068 1796.78,-102.993 1791.15,-99.3066 1796.1,-98.545 1796.1,-98.545 1796.1,-98.545 1791.15,-99.3066 1795.41,-94.0975 1786.21,-100.068 1786.21,-100.068"/>
</g>
<!-- Feed -->
<g id="node28" class="node"><title>Feed</title>
<ellipse fill="none" stroke="black" cx="931.764" cy="-92" rx="29.216" ry="18"/>
<text text-anchor="middle" x="931.764" y="-86.4" font-family="Times,serif" font-size="14.00">Feed</text>
</g>
<!-- Basket&#45;&gt;Feed -->
<g id="edge11" class="edge"><title>Basket&#45;&gt;Feed</title>
<path fill="none" stroke="#04320d" d="M995.736,-159.23C982.869,-145.91 966.443,-128.903 953.456,-115.458"/>
<ellipse fill="none" stroke="#04320d" cx="998.788" cy="-162.39" rx="4.00002" ry="4.00002"/>
<polygon fill="#04320d" stroke="#04320d" points="953.208,-115.202 949.498,-104.883 949.735,-111.605 946.261,-108.009 946.261,-108.009 946.261,-108.009 949.735,-111.605 943.024,-111.135 953.208,-115.202 953.208,-115.202"/>
</g>
<!-- Profile -->
<g id="node29" class="node"><title>Profile</title>
<ellipse fill="none" stroke="black" cx="1016.76" cy="-92" rx="36.1907" ry="18"/>
<text text-anchor="middle" x="1016.76" y="-86.4" font-family="Times,serif" font-size="14.00">Profile</text>
</g>
<!-- Basket&#45;&gt;Profile -->
<g id="edge13" class="edge"><title>Basket&#45;&gt;Profile</title>
<path fill="none" stroke="#3a5a37" d="M1016.76,-153.395C1016.76,-142.857 1016.76,-130.856 1016.76,-120.343"/>
<polygon fill="#3a5a37" stroke="#3a5a37" points="1016.76,-153.614 1012.26,-163.614 1016.76,-158.614 1016.76,-163.614 1016.76,-163.614 1016.76,-163.614 1016.76,-158.614 1021.26,-163.614 1016.76,-153.614 1016.76,-153.614"/>
<polygon fill="#3a5a37" stroke="#3a5a37" points="1016.76,-120.05 1021.26,-110.05 1016.76,-115.05 1016.76,-110.05 1016.76,-110.05 1016.76,-110.05 1016.76,-115.05 1012.26,-110.05 1016.76,-120.05 1016.76,-120.05"/>
</g>
<!-- Tagging -->
<g id="node30" class="node"><title>Tagging</title>
<ellipse fill="none" stroke="black" cx="1113.76" cy="-92" rx="42.316" ry="18"/>
<text text-anchor="middle" x="1113.76" y="-86.4" font-family="Times,serif" font-size="14.00">Tagging</text>
</g>
<!-- Basket&#45;&gt;Tagging -->
<g id="edge14" class="edge"><title>Basket&#45;&gt;Tagging</title>
<path fill="none" stroke="#394311" d="M1031.1,-157.491C1037.81,-147.656 1046.39,-136.551 1055.76,-128 1062.52,-121.837 1070.52,-116.189 1078.39,-111.313"/>
<ellipse fill="none" stroke="#394311" cx="1028.76" cy="-161.034" rx="4.00002" ry="4.00002"/>
<polygon fill="#394311" stroke="#394311" points="1078.53,-111.23 1089.42,-110.023 1082.83,-108.689 1087.14,-106.148 1087.14,-106.148 1087.14,-106.148 1082.83,-108.689 1084.85,-102.272 1078.53,-111.23 1078.53,-111.23"/>
</g>
<!-- Tag -->
<g id="node31" class="node"><title>Tag</title>
<ellipse fill="none" stroke="black" cx="1201.76" cy="-92" rx="27" ry="18"/>
<text text-anchor="middle" x="1201.76" y="-86.4" font-family="Times,serif" font-size="14.00">Tag</text>
</g>
<!-- Basket&#45;&gt;Tag -->
<g id="edge15" class="edge"><title>Basket&#45;&gt;Tag</title>
<path fill="none" stroke="#3aa471" d="M1038.97,-158.043C1050.49,-147.392 1065.36,-135.465 1080.76,-128 1115.12,-111.345 1128.53,-122.043 1164.76,-110 1167.03,-109.247 1169.34,-108.398 1171.64,-107.49"/>
<polygon fill="#3aa471" stroke="#3aa471" points="1038.78,-158.224 1028.45,-161.893 1035.17,-161.683 1031.56,-165.142 1031.56,-165.142 1031.56,-165.142 1035.17,-161.683 1034.67,-168.391 1038.78,-158.224 1038.78,-158.224"/>
<polygon fill="#3aa471" stroke="#3aa471" points="1171.75,-107.443 1182.72,-107.669 1176.35,-105.485 1180.95,-103.528 1180.95,-103.528 1180.95,-103.528 1176.35,-105.485 1179.19,-99.387 1171.75,-107.443 1171.75,-107.443"/>
</g>
<!-- Captcha -->
<g id="node3" class="node"><title>Captcha</title>
<ellipse fill="none" stroke="black" cx="918.764" cy="-182" rx="42.5136" ry="18"/>
<text text-anchor="middle" x="918.764" y="-176.4" font-family="Times,serif" font-size="14.00">Captcha</text>
</g>
<!-- Choice -->
<g id="node4" class="node"><title>Choice</title>
<ellipse fill="none" stroke="black" cx="1474.76" cy="-182" rx="38.0859" ry="18"/>
<text text-anchor="middle" x="1474.76" y="-176.4" font-family="Times,serif" font-size="14.00">Choice</text>
</g>
<!-- Choice&#45;&gt;Choice -->
<g id="edge20" class="edge"><title>Choice&#45;&gt;Choice</title>
<path fill="none" stroke="#2bfb02" d="M1518.32,-188.288C1525.68,-187.418 1530.76,-185.322 1530.76,-182 1530.76,-179.024 1526.68,-177.032 1520.54,-176.024"/>
<ellipse fill="none" stroke="#2bfb02" cx="1514.3" cy="-188.519" rx="4" ry="4"/>
<polygon fill="#2bfb02" stroke="#2bfb02" points="1520.28,-176.004 1510.65,-170.764 1515.29,-175.628 1510.31,-175.252 1510.31,-175.252 1510.31,-175.252 1515.29,-175.628 1509.97,-179.739 1520.28,-176.004 1520.28,-176.004"/>
<text text-anchor="middle" x="1553.7" y="-176.4" font-family="Times,serif" font-size="14.00">children</text>
</g>
<!-- ChoiceMapping -->
<g id="node5" class="node"><title>ChoiceMapping</title>
<ellipse fill="none" stroke="black" cx="1633.76" cy="-92" rx="72.8907" ry="18"/>
<text text-anchor="middle" x="1633.76" y="-86.4" font-family="Times,serif" font-size="14.00">ChoiceMapping</text>
</g>
<!-- Choice&#45;&gt;ChoiceMapping -->
<g id="edge18" class="edge"><title>Choice&#45;&gt;ChoiceMapping</title>
<path fill="none" stroke="#57bff6" d="M1505.6,-163.931C1531.6,-149.546 1568.86,-128.919 1596.52,-113.614"/>
<ellipse fill="none" stroke="#57bff6" cx="1502.07" cy="-165.889" rx="4.00002" ry="4.00002"/>
<polygon fill="#57bff6" stroke="#57bff6" points="1596.75,-113.487 1607.68,-112.582 1601.12,-111.066 1605.5,-108.645 1605.5,-108.645 1605.5,-108.645 1601.12,-111.066 1603.32,-104.707 1596.75,-113.487 1596.75,-113.487"/>
</g>
<!-- ExtendedField -->
<g id="node33" class="node"><title>ExtendedField</title>
<ellipse fill="none" stroke="black" cx="1474.76" cy="-92" rx="67.0349" ry="18"/>
<text text-anchor="middle" x="1474.76" y="-86.4" font-family="Times,serif" font-size="14.00">ExtendedField</text>
</g>
<!-- Choice&#45;&gt;ExtendedField -->
<g id="edge19" class="edge"><title>Choice&#45;&gt;ExtendedField</title>
<path fill="none" stroke="#fdbed8" d="M1474.76,-153.395C1474.76,-142.857 1474.76,-130.856 1474.76,-120.343"/>
<polygon fill="#fdbed8" stroke="#fdbed8" points="1474.76,-153.614 1470.26,-163.614 1474.76,-158.614 1474.76,-163.614 1474.76,-163.614 1474.76,-163.614 1474.76,-158.614 1479.26,-163.614 1474.76,-153.614 1474.76,-153.614"/>
<polygon fill="#fdbed8" stroke="#fdbed8" points="1474.76,-120.05 1479.26,-110.05 1474.76,-115.05 1474.76,-110.05 1474.76,-110.05 1474.76,-110.05 1474.76,-115.05 1470.26,-110.05 1474.76,-120.05 1474.76,-120.05"/>
</g>
<!-- ConfigurableSetting -->
<g id="node6" class="node"><title>ConfigurableSetting</title>
<ellipse fill="none" stroke="black" cx="1329.76" cy="-182" rx="88.2385" ry="18"/>
<text text-anchor="middle" x="1329.76" y="-176.4" font-family="Times,serif" font-size="14.00">ConfigurableSetting</text>
</g>
<!-- ContentType -->
<g id="node7" class="node"><title>ContentType</title>
<ellipse fill="none" stroke="black" cx="2428.76" cy="-182" rx="60.1766" ry="18"/>
<text text-anchor="middle" x="2428.76" y="-176.4" font-family="Times,serif" font-size="14.00">ContentType</text>
</g>
<!-- ContentTypeToFieldMapping -->
<g id="node34" class="node"><title>ContentTypeToFieldMapping</title>
<ellipse fill="none" stroke="black" cx="2645.76" cy="-92" rx="125.336" ry="18"/>
<text text-anchor="middle" x="2645.76" y="-86.4" font-family="Times,serif" font-size="14.00">ContentTypeToFieldMapping</text>
</g>
<!-- ContentType&#45;&gt;ContentTypeToFieldMapping -->
<g id="edge24" class="edge"><title>ContentType&#45;&gt;ContentTypeToFieldMapping</title>
<path fill="none" stroke="#267165" d="M2470.7,-163.992C2506.74,-149.38 2558.73,-128.294 2596.69,-112.901"/>
<ellipse fill="none" stroke="#267165" cx="2466.85" cy="-165.553" rx="4.00001" ry="4.00001"/>
<polygon fill="#267165" stroke="#267165" points="2596.75,-112.875 2607.71,-113.287 2601.39,-110.996 2606.02,-109.117 2606.02,-109.117 2606.02,-109.117 2601.39,-110.996 2604.33,-104.947 2596.75,-112.875 2596.75,-112.875"/>
</g>
<!-- FormField -->
<g id="node35" class="node"><title>FormField</title>
<ellipse fill="none" stroke="black" cx="2257.76" cy="-92" rx="51.2238" ry="18"/>
<text text-anchor="middle" x="2257.76" y="-86.4" font-family="Times,serif" font-size="14.00">FormField</text>
</g>
<!-- ContentType&#45;&gt;FormField -->
<g id="edge25" class="edge"><title>ContentType&#45;&gt;FormField</title>
<path fill="none" stroke="#c9d9fd" d="M2390.72,-161.422C2362.08,-146.682 2323.04,-126.59 2294.67,-111.995"/>
<polygon fill="#c9d9fd" stroke="#c9d9fd" points="2390.86,-161.496 2397.7,-170.073 2395.31,-163.784 2399.76,-166.072 2399.76,-166.072 2399.76,-166.072 2395.31,-163.784 2401.81,-162.071 2390.86,-161.496 2390.86,-161.496"/>
<polygon fill="#c9d9fd" stroke="#c9d9fd" points="2294.39,-111.847 2287.55,-103.27 2289.94,-109.559 2285.49,-107.271 2285.49,-107.271 2285.49,-107.271 2289.94,-109.559 2283.44,-111.272 2294.39,-111.847 2294.39,-111.847"/>
</g>
<!-- RequiredFormField -->
<g id="node36" class="node"><title>RequiredFormField</title>
<ellipse fill="none" stroke="black" cx="2414.76" cy="-92" rx="87.3186" ry="18"/>
<text text-anchor="middle" x="2414.76" y="-86.4" font-family="Times,serif" font-size="14.00">RequiredFormField</text>
</g>
<!-- ContentType&#45;&gt;RequiredFormField -->
<g id="edge26" class="edge"><title>ContentType&#45;&gt;RequiredFormField</title>
<path fill="none" stroke="#5c8647" d="M2424.37,-153.395C2422.68,-142.746 2420.75,-130.603 2419.06,-120.012"/>
<polygon fill="#5c8647" stroke="#5c8647" points="2424.43,-153.738 2421.55,-164.321 2425.21,-158.676 2426,-163.614 2426,-163.614 2426,-163.614 2425.21,-158.676 2430.44,-162.907 2424.43,-153.738 2424.43,-153.738"/>
<polygon fill="#5c8647" stroke="#5c8647" points="2419.05,-119.926 2421.92,-109.343 2418.26,-114.988 2417.48,-110.05 2417.48,-110.05 2417.48,-110.05 2418.26,-114.988 2413.03,-110.757 2419.05,-119.926 2419.05,-119.926"/>
</g>
<!-- Contribution -->
<g id="node8" class="node"><title>Contribution</title>
<ellipse fill="none" stroke="black" cx="1691.76" cy="-182" rx="60.095" ry="18"/>
<text text-anchor="middle" x="1691.76" y="-176.4" font-family="Times,serif" font-size="14.00">Contribution</text>
</g>
<!-- OaiPmhRepositorySet -->
<g id="node9" class="node"><title>OaiPmhRepositorySet</title>
<ellipse fill="none" stroke="black" cx="1867.76" cy="-182" rx="97.1175" ry="18"/>
<text text-anchor="middle" x="1867.76" y="-176.4" font-family="Times,serif" font-size="14.00">OaiPmhRepositorySet</text>
</g>
<!-- PqfQuery -->
<g id="node10" class="node"><title>PqfQuery</title>
<polygon fill="none" stroke="black" points="2822.09,-200 2751.44,-200 2751.44,-164 2822.09,-164 2822.09,-200"/>
<text text-anchor="middle" x="2786.76" y="-176.4" font-family="Times,serif" font-size="14.00">PqfQuery</text>
</g>
<!-- RedirectRegistration -->
<g id="node12" class="node"><title>RedirectRegistration</title>
<ellipse fill="none" stroke="black" cx="2073.76" cy="-182" rx="90.4275" ry="18"/>
<text text-anchor="middle" x="2073.76" y="-176.4" font-family="Times,serif" font-size="14.00">RedirectRegistration</text>
</g>
<!-- UserRole -->
<g id="node19" class="node"><title>UserRole</title>
<ellipse fill="none" stroke="black" cx="626.764" cy="-18" rx="47.264" ry="18"/>
<text text-anchor="middle" x="626.764" y="-12.4" font-family="Times,serif" font-size="14.00">UserRole</text>
</g>
<!-- Role&#45;&gt;UserRole -->
<g id="edge33" class="edge"><title>Role&#45;&gt;UserRole</title>
<path fill="none" stroke="#ebcd4a" d="M1330.26,-76.9367C1327.1,-75.7966 1323.9,-74.784 1320.76,-74 1200.51,-43.9246 827.425,-26.7353 683.865,-21.0903"/>
<ellipse fill="none" stroke="#ebcd4a" cx="1334.22" cy="-78.5041" rx="4.00001" ry="4.00001"/>
<polygon fill="#ebcd4a" stroke="#ebcd4a" points="683.518,-21.0769 673.7,-16.1916 678.522,-20.8825 673.526,-20.6882 673.526,-20.6882 673.526,-20.6882 678.522,-20.8825 673.351,-25.1848 683.518,-21.0769 683.518,-21.0769"/>
</g>
<!-- User -->
<g id="node38" class="node"><title>User</title>
<ellipse fill="none" stroke="black" cx="1359.76" cy="-18" rx="28.9087" ry="18"/>
<text text-anchor="middle" x="1359.76" y="-12.4" font-family="Times,serif" font-size="14.00">User</text>
</g>
<!-- Role&#45;&gt;User -->
<g id="edge34" class="edge"><title>Role&#45;&gt;User</title>
<path fill="none" stroke="#183087" d="M1359.76,-63.7193C1359.76,-58.1452 1359.76,-52.2742 1359.76,-46.686"/>
<polygon fill="#183087" stroke="#183087" points="1359.76,-63.937 1355.26,-73.937 1359.76,-68.937 1359.76,-73.937 1359.76,-73.937 1359.76,-73.937 1359.76,-68.937 1364.26,-73.937 1359.76,-63.937 1359.76,-63.937"/>
<polygon fill="#183087" stroke="#183087" points="1359.76,-46.4407 1364.26,-36.4406 1359.76,-41.4407 1359.76,-36.4407 1359.76,-36.4407 1359.76,-36.4407 1359.76,-41.4407 1355.26,-36.4407 1359.76,-46.4407 1359.76,-46.4407"/>
</g>
<!-- Search -->
<g id="node14" class="node"><title>Search</title>
<ellipse fill="none" stroke="black" cx="2544.76" cy="-182" rx="36.967" ry="18"/>
<text text-anchor="middle" x="2544.76" y="-176.4" font-family="Times,serif" font-size="14.00">Search</text>
</g>
<!-- SystemSetting -->
<g id="node15" class="node"><title>SystemSetting</title>
<ellipse fill="none" stroke="black" cx="2666.76" cy="-182" rx="66.2576" ry="18"/>
<text text-anchor="middle" x="2666.76" y="-176.4" font-family="Times,serif" font-size="14.00">SystemSetting</text>
</g>
<!-- TopicType -->
<g id="node16" class="node"><title>TopicType</title>
<ellipse fill="none" stroke="black" cx="2234.76" cy="-182" rx="52.0824" ry="18"/>
<text text-anchor="middle" x="2234.76" y="-176.4" font-family="Times,serif" font-size="14.00">TopicType</text>
</g>
<!-- TopicType&#45;&gt;TopicType -->
<g id="edge43" class="edge"><title>TopicType&#45;&gt;TopicType</title>
<path fill="none" stroke="#63ec64" d="M2291.26,-188.067C2299.34,-187.091 2304.76,-185.068 2304.76,-182 2304.76,-179.182 2300.19,-177.246 2293.19,-176.193"/>
<ellipse fill="none" stroke="#63ec64" cx="2287.17" cy="-188.372" rx="4" ry="4"/>
<polygon fill="#63ec64" stroke="#63ec64" points="2293.15,-176.19 2283.57,-170.847 2288.16,-175.76 2283.18,-175.331 2283.18,-175.331 2283.18,-175.331 2288.16,-175.76 2282.8,-179.814 2293.15,-176.19 2293.15,-176.19"/>
<text text-anchor="middle" x="2327.7" y="-176.4" font-family="Times,serif" font-size="14.00">children</text>
</g>
<!-- TopicType&#45;&gt;Topic -->
<g id="edge38" class="edge"><title>TopicType&#45;&gt;Topic</title>
<path fill="none" stroke="#db411f" d="M2189.31,-167.401C2183.77,-166.082 2178.16,-164.902 2172.76,-164 1985.86,-132.783 1506.52,-152.09 1321.76,-110 1318.96,-109.361 1316.1,-108.558 1313.26,-107.651"/>
<ellipse fill="none" stroke="#db411f" cx="2193.45" cy="-168.442" rx="4.00001" ry="4.00001"/>
<polygon fill="#db411f" stroke="#db411f" points="1313.18,-107.623 1305.28,-100.014 1308.47,-105.937 1303.77,-104.25 1303.77,-104.25 1303.77,-104.25 1308.47,-105.937 1302.25,-108.487 1313.18,-107.623 1313.18,-107.623"/>
</g>
<!-- TopicType&#45;&gt;Import -->
<g id="edge42" class="edge"><title>TopicType&#45;&gt;Import</title>
<path fill="none" stroke="#93728e" d="M2187.88,-167.811C2182.79,-166.478 2177.68,-165.182 2172.76,-164 2066.43,-138.412 1940.18,-113.639 1874.85,-101.232"/>
<ellipse fill="none" stroke="#93728e" cx="2191.97" cy="-168.896" rx="4.00001" ry="4.00001"/>
<polygon fill="#93728e" stroke="#93728e" points="1874.73,-101.209 1865.74,-94.9274 1869.81,-100.279 1864.9,-99.3489 1864.9,-99.3489 1864.9,-99.3489 1869.81,-100.279 1864.06,-103.77 1874.73,-101.209 1874.73,-101.209"/>
</g>
<!-- TopicType&#45;&gt;FormField -->
<g id="edge40" class="edge"><title>TopicType&#45;&gt;FormField</title>
<path fill="none" stroke="#648d1a" d="M2241.76,-154.234C2244.59,-143.393 2247.86,-130.895 2250.7,-120.027"/>
<polygon fill="#648d1a" stroke="#648d1a" points="2241.73,-154.358 2234.84,-162.895 2240.46,-159.195 2239.2,-164.033 2239.2,-164.033 2239.2,-164.033 2240.46,-159.195 2243.55,-165.171 2241.73,-154.358 2241.73,-154.358"/>
<polygon fill="#648d1a" stroke="#648d1a" points="2250.74,-119.89 2257.62,-111.353 2252,-115.053 2253.26,-110.215 2253.26,-110.215 2253.26,-110.215 2252,-115.053 2248.91,-109.078 2250.74,-119.89 2250.74,-119.89"/>
</g>
<!-- TopicType&#45;&gt;RequiredFormField -->
<g id="edge41" class="edge"><title>TopicType&#45;&gt;RequiredFormField</title>
<path fill="none" stroke="#a9c522" d="M2272.9,-162.355C2302.43,-147.92 2343.26,-127.958 2373.54,-113.155"/>
<polygon fill="#a9c522" stroke="#a9c522" points="2272.67,-162.469 2261.71,-162.819 2268.18,-164.665 2263.68,-166.861 2263.68,-166.861 2263.68,-166.861 2268.18,-164.665 2265.66,-170.904 2272.67,-162.469 2272.67,-162.469"/>
<polygon fill="#a9c522" stroke="#a9c522" points="2373.59,-113.13 2384.55,-112.781 2378.08,-110.934 2382.57,-108.738 2382.57,-108.738 2382.57,-108.738 2378.08,-110.934 2380.6,-104.695 2373.59,-113.13 2373.59,-113.13"/>
</g>
<!-- TopicTypeToFieldMapping -->
<g id="node39" class="node"><title>TopicTypeToFieldMapping</title>
<ellipse fill="none" stroke="black" cx="2070.76" cy="-92" rx="116.244" ry="18"/>
<text text-anchor="middle" x="2070.76" y="-86.4" font-family="Times,serif" font-size="14.00">TopicTypeToFieldMapping</text>
</g>
<!-- TopicType&#45;&gt;TopicTypeToFieldMapping -->
<g id="edge39" class="edge"><title>TopicType&#45;&gt;TopicTypeToFieldMapping</title>
<path fill="none" stroke="#d5926c" d="M2200.54,-162.635C2174.29,-148.552 2138.02,-129.087 2110.49,-114.317"/>
<ellipse fill="none" stroke="#d5926c" cx="2204.16" cy="-164.577" rx="4.00002" ry="4.00002"/>
<polygon fill="#d5926c" stroke="#d5926c" points="2110.33,-114.23 2103.65,-105.537 2105.92,-111.866 2101.52,-109.502 2101.52,-109.502 2101.52,-109.502 2105.92,-111.866 2099.39,-113.467 2110.33,-114.23 2110.33,-114.23"/>
</g>
<!-- UserNotifier -->
<g id="node17" class="node"><title>UserNotifier</title>
<polygon fill="none" stroke="black" points="2971.25,-200 2886.27,-200 2886.27,-164 2971.25,-164 2971.25,-200"/>
<text text-anchor="middle" x="2928.76" y="-176.4" font-family="Times,serif" font-size="14.00">UserNotifier</text>
</g>
<!-- UserObserver -->
<g id="node18" class="node"><title>UserObserver</title>
<polygon fill="none" stroke="black" points="3186.07,-200 3093.45,-200 3093.45,-164 3186.07,-164 3186.07,-200"/>
<text text-anchor="middle" x="3139.76" y="-176.4" font-family="Times,serif" font-size="14.00">UserObserver</text>
</g>
<!-- ActiveRecord::Base -->
<g id="node32" class="node"><title>ActiveRecord::Base</title>
<ellipse fill="none" stroke="black" cx="1603.76" cy="-281" rx="88.2033" ry="18"/>
<text text-anchor="middle" x="1603.76" y="-275.4" font-family="Times,serif" font-size="14.00">ActiveRecord::Base</text>
</g>
<!-- ActiveRecord::Base&#45;&gt;Basket -->
<g id="edge16" class="edge"><title>ActiveRecord::Base&#45;&gt;Basket</title>
<path fill="none" stroke="black" d="M1573.8,-263.934C1554.86,-254.603 1529.54,-243.611 1505.76,-238 1372.74,-206.61 1334.3,-237.659 1198.76,-220 1145.85,-213.105 1085.29,-199.661 1049.08,-191.018"/>
</g>
<!-- ActiveRecord::Base&#45;&gt;Captcha -->
<g id="edge17" class="edge"><title>ActiveRecord::Base&#45;&gt;Captcha</title>
<path fill="none" stroke="black" d="M1573.8,-263.914C1554.86,-254.575 1529.55,-243.583 1505.76,-238 1367.09,-205.45 1327.82,-230.599 1185.76,-220 1090.06,-212.86 1064.73,-219.476 970.764,-200 963.881,-198.574 956.633,-196.551 949.805,-194.397"/>
</g>
<!-- ActiveRecord::Base&#45;&gt;Choice -->
<g id="edge21" class="edge"><title>ActiveRecord::Base&#45;&gt;Choice</title>
<path fill="none" stroke="black" d="M1581.88,-263.545C1557.3,-245.06 1517.76,-215.332 1494.22,-197.629"/>
</g>
<!-- ActiveRecord::Base&#45;&gt;ChoiceMapping -->
<g id="edge22" class="edge"><title>ActiveRecord::Base&#45;&gt;ChoiceMapping</title>
<path fill="none" stroke="black" d="M1606.53,-262.743C1612.25,-227.118 1625.29,-145.804 1631,-110.216"/>
</g>
<!-- ActiveRecord::Base&#45;&gt;ConfigurableSetting -->
<g id="edge23" class="edge"><title>ActiveRecord::Base&#45;&gt;ConfigurableSetting</title>
<path fill="none" stroke="black" d="M1569.64,-264.36C1550.96,-256.057 1527.29,-245.954 1505.76,-238 1463.57,-222.413 1414.68,-207.368 1379.15,-196.966"/>
</g>
<!-- ActiveRecord::Base&#45;&gt;ContentType -->
<g id="edge27" class="edge"><title>ActiveRecord::Base&#45;&gt;ContentType</title>
<path fill="none" stroke="black" d="M1686.93,-274.811C1826.55,-265.291 2116.56,-242.051 2358.76,-200 2367.39,-198.503 2376.53,-196.553 2385.26,-194.51"/>
</g>
<!-- ActiveRecord::Base&#45;&gt;Contribution -->
<g id="edge28" class="edge"><title>ActiveRecord::Base&#45;&gt;Contribution</title>
<path fill="none" stroke="black" d="M1619.09,-263.104C1635.24,-245.3 1660.53,-217.433 1676.61,-199.702"/>
</g>
<!-- ActiveRecord::Base&#45;&gt;OaiPmhRepositorySet -->
<g id="edge29" class="edge"><title>ActiveRecord::Base&#45;&gt;OaiPmhRepositorySet</title>
<path fill="none" stroke="black" d="M1644.72,-264.95C1693.97,-246.857 1776.16,-216.656 1825.83,-198.406"/>
</g>
<!-- ActiveRecord::Base&#45;&gt;ProfileMapping -->
<g id="edge31" class="edge"><title>ActiveRecord::Base&#45;&gt;ProfileMapping</title>
<path fill="none" stroke="black" d="M1573.81,-263.874C1554.88,-254.52 1529.56,-243.526 1505.76,-238 1429.9,-220.386 1233.5,-224.689 1155.76,-220 749.836,-195.518 641.667,-229.965 243.764,-146 201.467,-137.075 154.754,-120.064 123.781,-107.715"/>
</g>
<!-- ActiveRecord::Base&#45;&gt;RedirectRegistration -->
<g id="edge32" class="edge"><title>ActiveRecord::Base&#45;&gt;RedirectRegistration</title>
<path fill="none" stroke="black" d="M1663.77,-267.616C1753.85,-249.025 1923.07,-214.101 2013.38,-195.463"/>
</g>
<!-- ActiveRecord::Base&#45;&gt;Role -->
<g id="edge35" class="edge"><title>ActiveRecord::Base&#45;&gt;Role</title>
<path fill="none" stroke="black" d="M1572.32,-263.972C1553.47,-255.015 1528.77,-244.4 1505.76,-238 1446.54,-221.524 1272.13,-246.357 1231.76,-200 1221.26,-187.934 1222.05,-176.715 1231.76,-164 1250.22,-139.837 1270.89,-160.223 1297.76,-146 1316.29,-136.196 1334.12,-120.014 1345.86,-108.105"/>
</g>
<!-- ActiveRecord::Base&#45;&gt;Search -->
<g id="edge36" class="edge"><title>ActiveRecord::Base&#45;&gt;Search</title>
<path fill="none" stroke="black" d="M1692.15,-279.591C1853.95,-277.193 2207.76,-264.29 2497.76,-200 2504.2,-198.573 2510.96,-196.495 2517.28,-194.278"/>
</g>
<!-- ActiveRecord::Base&#45;&gt;SystemSetting -->
<g id="edge37" class="edge"><title>ActiveRecord::Base&#45;&gt;SystemSetting</title>
<path fill="none" stroke="black" d="M1687.25,-274.966C1834.65,-265.826 2150.63,-245.105 2416.76,-220 2494.26,-212.689 2514.01,-212.959 2590.76,-200 2599.83,-198.469 2609.44,-196.553 2618.67,-194.563"/>
</g>
<!-- ActiveRecord::Base&#45;&gt;TopicType -->
<g id="edge44" class="edge"><title>ActiveRecord::Base&#45;&gt;TopicType</title>
<path fill="none" stroke="black" d="M1681.15,-272.296C1791.12,-260.63 1998.62,-235.962 2172.76,-200 2180.52,-198.397 2188.75,-196.376 2196.58,-194.292"/>
</g>
<!-- ActiveRecord::Base&#45;&gt;UserRole -->
<g id="edge47" class="edge"><title>ActiveRecord::Base&#45;&gt;UserRole</title>
<path fill="none" stroke="black" d="M1574.28,-263.93C1555.31,-254.47 1529.8,-243.342 1505.76,-238 1442.5,-223.936 403.861,-209.599 339.764,-200 188.569,-177.358 100.654,-231.425 7.76364,-110 -1.95798,-97.2921 -3.03781,-85.8038 7.76364,-74 46.1839,-32.0146 441.78,-21.876 579.67,-19.609"/>
</g>
<!-- Object -->
<g id="node37" class="node"><title>Object</title>
<ellipse fill="none" stroke="black" cx="2786.76" cy="-281" rx="36.1697" ry="18"/>
<text text-anchor="middle" x="2786.76" y="-275.4" font-family="Times,serif" font-size="14.00">Object</text>
</g>
<!-- Object&#45;&gt;PqfQuery -->
<g id="edge30" class="edge"><title>Object&#45;&gt;PqfQuery</title>
<path fill="none" stroke="black" d="M2786.76,-262.658C2786.76,-245.002 2786.76,-217.793 2786.76,-200.192"/>
</g>
<!-- ActionMailer::Base -->
<g id="node40" class="node"><title>ActionMailer::Base</title>
<ellipse fill="none" stroke="black" cx="2928.76" cy="-281" rx="87.2974" ry="18"/>
<text text-anchor="middle" x="2928.76" y="-275.4" font-family="Times,serif" font-size="14.00">ActionMailer::Base</text>
</g>
<!-- ActionMailer::Base&#45;&gt;UserNotifier -->
<g id="edge45" class="edge"><title>ActionMailer::Base&#45;&gt;UserNotifier</title>
<path fill="none" stroke="black" d="M2928.76,-262.658C2928.76,-245.002 2928.76,-217.793 2928.76,-200.192"/>
</g>
<!-- ActiveRecord::Observer -->
<g id="node41" class="node"><title>ActiveRecord::Observer</title>
<ellipse fill="none" stroke="black" cx="3139.76" cy="-281" rx="105.134" ry="18"/>
<text text-anchor="middle" x="3139.76" y="-275.4" font-family="Times,serif" font-size="14.00">ActiveRecord::Observer</text>
</g>
<!-- ActiveRecord::Observer&#45;&gt;UserObserver -->
<g id="edge46" class="edge"><title>ActiveRecord::Observer&#45;&gt;UserObserver</title>
<path fill="none" stroke="black" d="M3139.76,-262.658C3139.76,-245.002 3139.76,-217.793 3139.76,-200.192"/>
</g>
</g>
</svg>
