<?xml version="1.0" encoding="UTF-8" standalone="no"?>
<!DOCTYPE svg PUBLIC "-//W3C//DTD SVG 1.1//EN"
 "http://www.w3.org/Graphics/SVG/1.1/DTD/svg11.dtd">
<!-- Generated by graphviz version 2.30.1 (20130805.0028)
 -->
<!-- Title: models_diagram Pages: 1 -->
<svg width="4637pt" height="618pt"
 viewBox="0.00 0.00 4637.00 618.00" xmlns="http://www.w3.org/2000/svg" xmlns:xlink="http://www.w3.org/1999/xlink">
<g id="graph0" class="graph" transform="scale(1 1) rotate(0) translate(4 614)">
<title>models_diagram</title>
<polygon fill="white" stroke="white" points="-4,5 -4,-614 4634,-614 4634,5 -4,5"/>
<!-- _diagram_info -->
<g id="node1" class="node"><title>_diagram_info</title>
<text text-anchor="start" x="2318.55" y="-593" font-family="Times,serif" font-size="13.00">Models diagram</text>
<text text-anchor="start" x="2318.55" y="-577.4" font-family="Times,serif" font-size="13.00">Date: Nov 13 2013 &#45; 17:08</text>
<text text-anchor="start" x="2318.55" y="-561.8" font-family="Times,serif" font-size="13.00">Migration version: 20120621074113</text>
<text text-anchor="start" x="2318.55" y="-546.2" font-family="Times,serif" font-size="13.00">Generated by RailRoady 1.1.1</text>
<text text-anchor="start" x="2318.55" y="-530.6" font-family="Times,serif" font-size="13.00">http://railroady.prestonlee.com</text>
</g>
<!-- Basket -->
<g id="node2" class="node"><title>Basket</title>
<ellipse fill="none" stroke="black" cx="1766" cy="-468" rx="36.9811" ry="18"/>
<text text-anchor="middle" x="1766" y="-462.4" font-family="Times,serif" font-size="14.00">Basket</text>
</g>
<!-- Role -->
<g id="node15" class="node"><title>Role</title>
<ellipse fill="none" stroke="black" cx="1807" cy="-378" rx="28.9157" ry="18"/>
<text text-anchor="middle" x="1807" y="-372.4" font-family="Times,serif" font-size="14.00">Role</text>
</g>
<!-- Basket&#45;&gt;Role -->
<g id="edge1" class="edge"><title>Basket&#45;&gt;Role</title>
<path fill="none" stroke="#6ab8d6" d="M1762.25,-441.938C1761.93,-432.774 1762.85,-422.563 1766.83,-414 1769.64,-407.944 1774.06,-402.52 1778.96,-397.854"/>
<ellipse fill="none" stroke="#6ab8d6" cx="1762.55" cy="-445.993" rx="4" ry="4"/>
<polygon fill="#6ab8d6" stroke="#6ab8d6" points="1779.25,-397.613 1789.79,-394.601 1783.07,-394.388 1786.89,-391.162 1786.89,-391.162 1786.89,-391.162 1783.07,-394.388 1783.98,-387.724 1779.25,-397.613 1779.25,-397.613"/>
<text text-anchor="middle" x="1808.59" y="-417.4" font-family="Times,serif" font-size="14.00">accepted_roles</text>
</g>
<!-- Topic -->
<g id="node24" class="node"><title>Topic</title>
<ellipse fill="none" stroke="black" cx="1801" cy="-108" rx="32.3327" ry="18"/>
<text text-anchor="middle" x="1801" y="-102.4" font-family="Times,serif" font-size="14.00">Topic</text>
</g>
<!-- Basket&#45;&gt;Topic -->
<g id="edge2" class="edge"><title>Basket&#45;&gt;Topic</title>
<path fill="none" stroke="#764381" d="M1811.66,-467.021C1953.55,-465.517 2396.97,-448.909 2726,-306 2808.06,-270.357 2944.16,-245.303 2883,-180 2846.83,-141.379 2039.4,-115.826 1843.52,-110.182"/>
<ellipse fill="none" stroke="#764381" cx="1807.54" cy="-467.058" rx="4" ry="4"/>
<polygon fill="#764381" stroke="#764381" points="1843.34,-110.176 1833.47,-105.392 1838.34,-110.033 1833.34,-109.89 1833.34,-109.89 1833.34,-109.89 1838.34,-110.033 1833.21,-114.388 1843.34,-110.176 1843.34,-110.176"/>
</g>
<!-- Comment -->
<g id="node6" class="node"><title>Comment</title>
<ellipse fill="none" stroke="black" cx="497" cy="-108" rx="49.1903" ry="18"/>
<text text-anchor="middle" x="497" y="-102.4" font-family="Times,serif" font-size="14.00">Comment</text>
</g>
<!-- Basket&#45;&gt;Comment -->
<g id="edge3" class="edge"><title>Basket&#45;&gt;Comment</title>
<path fill="none" stroke="#46c7b4" d="M1720.6,-466.645C1552.82,-465.134 973.477,-458.06 895,-432 841.299,-414.167 836.737,-391.897 790,-360 695.919,-295.792 660.581,-294.449 578,-216 551.903,-191.209 527.805,-157.371 512.797,-134.435"/>
<ellipse fill="none" stroke="#46c7b4" cx="1724.74" cy="-466.682" rx="4" ry="4"/>
<polygon fill="#46c7b4" stroke="#46c7b4" points="512.731,-134.332 511.101,-123.488 510.024,-130.128 507.318,-125.923 507.318,-125.923 507.318,-125.923 510.024,-130.128 503.534,-128.359 512.731,-134.332 512.731,-134.332"/>
</g>
<!-- Document -->
<g id="node25" class="node"><title>Document</title>
<ellipse fill="none" stroke="black" cx="2674" cy="-198" rx="50.8959" ry="18"/>
<text text-anchor="middle" x="2674" y="-192.4" font-family="Times,serif" font-size="14.00">Document</text>
</g>
<!-- Basket&#45;&gt;Document -->
<g id="edge4" class="edge"><title>Basket&#45;&gt;Document</title>
<path fill="none" stroke="#694423" d="M1810.79,-464.186C1883.15,-459.363 2030.21,-448.424 2154,-432 2245.7,-419.834 2269.24,-418.353 2359,-396 2384.11,-389.747 2786.79,-272.937 2802,-252 2823,-223.086 2776.5,-209.881 2733.79,-203.891"/>
<ellipse fill="none" stroke="#694423" cx="1806.75" cy="-464.452" rx="4" ry="4"/>
<polygon fill="#694423" stroke="#694423" points="2733.54,-203.859 2724.19,-198.122 2728.58,-203.222 2723.62,-202.585 2723.62,-202.585 2723.62,-202.585 2728.58,-203.222 2723.05,-207.048 2733.54,-203.859 2733.54,-203.859"/>
</g>
<!-- Video -->
<g id="node26" class="node"><title>Video</title>
<ellipse fill="none" stroke="black" cx="2388" cy="-198" rx="34.0921" ry="18"/>
<text text-anchor="middle" x="2388" y="-192.4" font-family="Times,serif" font-size="14.00">Video</text>
</g>
<!-- Basket&#45;&gt;Video -->
<g id="edge5" class="edge"><title>Basket&#45;&gt;Video</title>
<path fill="none" stroke="#826ec6" d="M1811.33,-464.92C1874.22,-461.395 1991.27,-452.516 2089,-432 2280.58,-391.784 2388.08,-418.523 2491,-252 2507.41,-225.453 2466.08,-211.616 2430.98,-204.834"/>
<ellipse fill="none" stroke="#826ec6" cx="1807.18" cy="-465.146" rx="4" ry="4"/>
<polygon fill="#826ec6" stroke="#826ec6" points="2430.67,-204.78 2421.61,-198.596 2425.75,-203.903 2420.83,-203.026 2420.83,-203.026 2420.83,-203.026 2425.75,-203.903 2420.04,-207.457 2430.67,-204.78 2430.67,-204.78"/>
</g>
<!-- AudioRecording -->
<g id="node27" class="node"><title>AudioRecording</title>
<ellipse fill="none" stroke="black" cx="2088" cy="-198" rx="75.1081" ry="18"/>
<text text-anchor="middle" x="2088" y="-192.4" font-family="Times,serif" font-size="14.00">AudioRecording</text>
</g>
<!-- Basket&#45;&gt;AudioRecording -->
<g id="edge6" class="edge"><title>Basket&#45;&gt;AudioRecording</title>
<path fill="none" stroke="#249dd9" d="M1811.23,-466.203C1923.99,-461.466 2217.34,-431.639 2341,-252 2345.54,-245.41 2346.25,-240.032 2341,-234 2319.43,-209.246 2238.17,-201.418 2173.48,-199.218"/>
<ellipse fill="none" stroke="#249dd9" cx="1807.11" cy="-466.361" rx="4" ry="4"/>
<polygon fill="#249dd9" stroke="#249dd9" points="2173.25,-199.211 2163.39,-194.414 2168.25,-199.061 2163.25,-198.912 2163.25,-198.912 2163.25,-198.912 2168.25,-199.061 2163.12,-203.41 2173.25,-199.211 2173.25,-199.211"/>
</g>
<!-- StillImage -->
<g id="node28" class="node"><title>StillImage</title>
<ellipse fill="none" stroke="black" cx="1867" cy="-198" rx="50.9029" ry="18"/>
<text text-anchor="middle" x="1867" y="-192.4" font-family="Times,serif" font-size="14.00">StillImage</text>
</g>
<!-- Basket&#45;&gt;StillImage -->
<g id="edge7" class="edge"><title>Basket&#45;&gt;StillImage</title>
<path fill="none" stroke="#e00b16" d="M1808.82,-458.968C1824.25,-453.858 1840.25,-445.534 1850,-432 1894.66,-370.029 1882.81,-273.138 1873.43,-226.244"/>
<ellipse fill="none" stroke="#e00b16" cx="1804.67" cy="-460.21" rx="4.00001" ry="4.00001"/>
<polygon fill="#e00b16" stroke="#e00b16" points="1873.38,-226.019 1875.71,-215.303 1872.34,-221.127 1871.31,-216.236 1871.31,-216.236 1871.31,-216.236 1872.34,-221.127 1866.9,-217.169 1873.38,-226.019 1873.38,-226.019"/>
</g>
<!-- WebLink -->
<g id="node23" class="node"><title>WebLink</title>
<ellipse fill="none" stroke="black" cx="1120" cy="-198" rx="46.6035" ry="18"/>
<text text-anchor="middle" x="1120" y="-192.4" font-family="Times,serif" font-size="14.00">WebLink</text>
</g>
<!-- Basket&#45;&gt;WebLink -->
<g id="edge8" class="edge"><title>Basket&#45;&gt;WebLink</title>
<path fill="none" stroke="#0c4df6" d="M1720.53,-466.799C1548.13,-465.825 943.029,-460.387 914,-432 851.083,-370.474 849.097,-293.427 914,-234 936.647,-213.264 1020.82,-221.682 1051,-216 1058.17,-214.65 1065.71,-213.017 1073.06,-211.304"/>
<ellipse fill="none" stroke="#0c4df6" cx="1724.65" cy="-466.822" rx="4" ry="4"/>
<polygon fill="#0c4df6" stroke="#0c4df6" points="1073.2,-211.27 1083.97,-213.312 1078.06,-210.103 1082.92,-208.936 1082.92,-208.936 1082.92,-208.936 1078.06,-210.103 1081.87,-204.561 1073.2,-211.27 1073.2,-211.27"/>
</g>
<!-- Basket&#45;&gt;Topic -->
<g id="edge9" class="edge"><title>Basket&#45;&gt;Topic</title>
<path fill="none" stroke="#ea914e" d="M1721.49,-462.862C1668.95,-457.566 1579.1,-447.219 1503,-432 1269.03,-385.21 844.36,-411.326 1004,-234 1029.57,-205.602 1140.19,-231.76 1175,-216 1196.49,-206.271 1192.23,-189.072 1214,-180 1297.78,-145.097 1534.15,-184.793 1622,-162 1639.32,-157.507 1641.21,-150.165 1658,-144 1692.54,-131.319 1733.46,-121.832 1762.65,-115.957"/>
<ellipse fill="none" stroke="#ea914e" cx="1725.61" cy="-463.272" rx="4" ry="4"/>
<ellipse fill="#ea914e" stroke="#ea914e" cx="1766.64" cy="-115.17" rx="4.00001" ry="4.00001"/>
<text text-anchor="middle" x="1011.05" y="-282.4" font-family="Times,serif" font-size="14.00">index_topic</text>
</g>
<!-- Import -->
<g id="node10" class="node"><title>Import</title>
<ellipse fill="none" stroke="black" cx="3706" cy="-198" rx="36.9811" ry="18"/>
<text text-anchor="middle" x="3706" y="-192.4" font-family="Times,serif" font-size="14.00">Import</text>
</g>
<!-- Basket&#45;&gt;Import -->
<g id="edge10" class="edge"><title>Basket&#45;&gt;Import</title>
<path fill="none" stroke="#1fd067" d="M1811.12,-464.67C1877.62,-461.267 2005.88,-454.816 2115,-450 2317.18,-441.077 2369.1,-456.471 2570,-432 2648.82,-422.399 2669.63,-420.987 2745,-396 2780.86,-384.112 2786.01,-371.479 2822,-360 2982.72,-308.74 3502.84,-229.177 3660.37,-205.723"/>
<ellipse fill="none" stroke="#1fd067" cx="1806.92" cy="-464.885" rx="4" ry="4"/>
<polygon fill="#1fd067" stroke="#1fd067" points="3660.75,-205.666 3671.31,-208.647 3665.7,-204.931 3670.64,-204.196 3670.64,-204.196 3670.64,-204.196 3665.7,-204.931 3669.98,-199.745 3660.75,-205.666 3660.75,-205.666"/>
</g>
<!-- Feed -->
<g id="node29" class="node"><title>Feed</title>
<ellipse fill="none" stroke="black" cx="1408" cy="-378" rx="29.216" ry="18"/>
<text text-anchor="middle" x="1408" y="-372.4" font-family="Times,serif" font-size="14.00">Feed</text>
</g>
<!-- Basket&#45;&gt;Feed -->
<g id="edge11" class="edge"><title>Basket&#45;&gt;Feed</title>
<path fill="none" stroke="#c37279" d="M1722.83,-460.49C1660.74,-450.434 1543.1,-428.792 1447,-396 1444.76,-395.235 1442.47,-394.395 1440.17,-393.511"/>
<ellipse fill="none" stroke="#c37279" cx="1726.9" cy="-461.142" rx="4.00001" ry="4.00001"/>
<polygon fill="#c37279" stroke="#c37279" points="1440.11,-393.485 1432.55,-385.54 1435.48,-391.595 1430.85,-389.706 1430.85,-389.706 1430.85,-389.706 1435.48,-391.595 1429.15,-393.872 1440.11,-393.485 1440.11,-393.485"/>
</g>
<!-- ProfileMapping -->
<g id="node13" class="node"><title>ProfileMapping</title>
<ellipse fill="none" stroke="black" cx="2665" cy="-378" rx="71.4914" ry="18"/>
<text text-anchor="middle" x="2665" y="-372.4" font-family="Times,serif" font-size="14.00">ProfileMapping</text>
</g>
<!-- Basket&#45;&gt;ProfileMapping -->
<g id="edge12" class="edge"><title>Basket&#45;&gt;ProfileMapping</title>
<path fill="none" stroke="#693fc0" d="M1811.12,-464.731C1877.63,-461.404 2005.89,-455.046 2115,-450 2206.32,-445.776 2436.48,-450.523 2526,-432 2560.39,-424.885 2597.46,-410.377 2624.66,-398.336"/>
<ellipse fill="none" stroke="#693fc0" cx="1806.93" cy="-464.941" rx="4" ry="4"/>
<polygon fill="#693fc0" stroke="#693fc0" points="2624.73,-398.304 2635.7,-398.299 2629.29,-396.25 2633.85,-394.196 2633.85,-394.196 2633.85,-394.196 2629.29,-396.25 2632,-390.093 2624.73,-398.304 2624.73,-398.304"/>
</g>
<!-- Profile -->
<g id="node30" class="node"><title>Profile</title>
<ellipse fill="none" stroke="black" cx="1493" cy="-378" rx="36.1907" ry="18"/>
<text text-anchor="middle" x="1493" y="-372.4" font-family="Times,serif" font-size="14.00">Profile</text>
</g>
<!-- Basket&#45;&gt;Profile -->
<g id="edge13" class="edge"><title>Basket&#45;&gt;Profile</title>
<path fill="none" stroke="#f03e35" d="M1724.97,-455.024C1679.15,-441.46 1602.87,-418.332 1538,-396 1535.58,-395.167 1533.1,-394.291 1530.6,-393.393"/>
<polygon fill="#f03e35" stroke="#f03e35" points="1725.24,-455.102 1733.56,-462.249 1730.04,-456.518 1734.83,-457.933 1734.83,-457.933 1734.83,-457.933 1730.04,-456.518 1736.11,-453.617 1725.24,-455.102 1725.24,-455.102"/>
<polygon fill="#f03e35" stroke="#f03e35" points="1530.38,-393.313 1522.54,-385.644 1525.69,-391.59 1520.99,-389.868 1520.99,-389.868 1520.99,-389.868 1525.69,-391.59 1519.44,-394.093 1530.38,-393.313 1530.38,-393.313"/>
</g>
<!-- Tagging -->
<g id="node31" class="node"><title>Tagging</title>
<ellipse fill="none" stroke="black" cx="1590" cy="-378" rx="42.316" ry="18"/>
<text text-anchor="middle" x="1590" y="-372.4" font-family="Times,serif" font-size="14.00">Tagging</text>
</g>
<!-- Basket&#45;&gt;Tagging -->
<g id="edge14" class="edge"><title>Basket&#45;&gt;Tagging</title>
<path fill="none" stroke="#6b3457" d="M1733.85,-450.924C1703.31,-435.654 1657.47,-412.737 1625.79,-396.894"/>
<ellipse fill="none" stroke="#6b3457" cx="1737.58" cy="-452.79" rx="4.00002" ry="4.00002"/>
<polygon fill="#6b3457" stroke="#6b3457" points="1625.39,-396.693 1618.45,-388.196 1620.91,-394.457 1616.44,-392.221 1616.44,-392.221 1616.44,-392.221 1620.91,-394.457 1614.43,-396.246 1625.39,-396.693 1625.39,-396.693"/>
</g>
<!-- Tag -->
<g id="node32" class="node"><title>Tag</title>
<ellipse fill="none" stroke="black" cx="1678" cy="-378" rx="27" ry="18"/>
<text text-anchor="middle" x="1678" y="-372.4" font-family="Times,serif" font-size="14.00">Tag</text>
</g>
<!-- Basket&#45;&gt;Tag -->
<g id="edge15" class="edge"><title>Basket&#45;&gt;Tag</title>
<path fill="none" stroke="#52bb66" d="M1736.72,-447.128C1730.61,-442.459 1724.39,-437.292 1719,-432 1710.1,-423.264 1701.47,-412.552 1694.44,-403.05"/>
<polygon fill="#52bb66" stroke="#52bb66" points="1736.85,-447.221 1742.23,-456.774 1740.87,-450.186 1744.9,-453.15 1744.9,-453.15 1744.9,-453.15 1740.87,-450.186 1747.57,-449.527 1736.85,-447.221 1736.85,-447.221"/>
<polygon fill="#52bb66" stroke="#52bb66" points="1694.31,-402.873 1692.12,-392.128 1691.39,-398.814 1688.47,-394.756 1688.47,-394.756 1688.47,-394.756 1691.39,-398.814 1684.81,-397.384 1694.31,-402.873 1694.31,-402.873"/>
</g>
<!-- Captcha -->
<g id="node3" class="node"><title>Captcha</title>
<ellipse fill="none" stroke="black" cx="705" cy="-468" rx="42.5136" ry="18"/>
<text text-anchor="middle" x="705" y="-462.4" font-family="Times,serif" font-size="14.00">Captcha</text>
</g>
<!-- Choice -->
<g id="node4" class="node"><title>Choice</title>
<ellipse fill="none" stroke="black" cx="3053" cy="-468" rx="38.0859" ry="18"/>
<text text-anchor="middle" x="3053" y="-462.4" font-family="Times,serif" font-size="14.00">Choice</text>
</g>
<!-- ChoiceMapping -->
<g id="node5" class="node"><title>ChoiceMapping</title>
<ellipse fill="none" stroke="black" cx="2904" cy="-378" rx="72.8907" ry="18"/>
<text text-anchor="middle" x="2904" y="-372.4" font-family="Times,serif" font-size="14.00">ChoiceMapping</text>
</g>
<!-- Choice&#45;&gt;ChoiceMapping -->
<g id="edge18" class="edge"><title>Choice&#45;&gt;ChoiceMapping</title>
<path fill="none" stroke="#b172aa" d="M3035.02,-444.455C3025.77,-434.037 3013.76,-422.188 3001,-414 2989.12,-406.374 2975.35,-400.125 2961.99,-395.129"/>
<ellipse fill="none" stroke="#b172aa" cx="3037.8" cy="-447.682" rx="4.00002" ry="4.00002"/>
<polygon fill="#b172aa" stroke="#b172aa" points="2961.79,-395.057 2953.87,-387.47 2957.08,-393.384 2952.37,-391.71 2952.37,-391.71 2952.37,-391.71 2957.08,-393.384 2950.86,-395.951 2961.79,-395.057 2961.79,-395.057"/>
</g>
<!-- ExtendedField -->
<g id="node34" class="node"><title>ExtendedField</title>
<ellipse fill="none" stroke="black" cx="3063" cy="-378" rx="67.0349" ry="18"/>
<text text-anchor="middle" x="3063" y="-372.4" font-family="Times,serif" font-size="14.00">ExtendedField</text>
</g>
<!-- Choice&#45;&gt;ExtendedField -->
<g id="edge19" class="edge"><title>Choice&#45;&gt;ExtendedField</title>
<path fill="none" stroke="#67e018" d="M3056.14,-439.395C3057.35,-428.746 3058.73,-416.603 3059.93,-406.012"/>
<polygon fill="#67e018" stroke="#67e018" points="3056.1,-439.678 3050.5,-449.106 3055.54,-444.646 3054.98,-449.614 3054.98,-449.614 3054.98,-449.614 3055.54,-444.646 3059.45,-450.122 3056.1,-439.678 3056.1,-439.678"/>
<polygon fill="#67e018" stroke="#67e018" points="3059.93,-405.986 3065.53,-396.559 3060.5,-401.018 3061.06,-396.05 3061.06,-396.05 3061.06,-396.05 3060.5,-401.018 3056.59,-395.542 3059.93,-405.986 3059.93,-405.986"/>
</g>
<!-- Choice&#45;&gt;Choice -->
<g id="edge20" class="edge"><title>Choice&#45;&gt;Choice</title>
<path fill="none" stroke="#49e525" d="M3096.56,-474.288C3103.91,-473.418 3109,-471.322 3109,-468 3109,-465.024 3104.92,-463.032 3098.78,-462.024"/>
<ellipse fill="none" stroke="#49e525" cx="3092.54" cy="-474.519" rx="4" ry="4"/>
<polygon fill="#49e525" stroke="#49e525" points="3098.52,-462.004 3088.88,-456.764 3093.53,-461.628 3088.55,-461.252 3088.55,-461.252 3088.55,-461.252 3093.53,-461.628 3088.21,-465.739 3098.52,-462.004 3098.52,-462.004"/>
<text text-anchor="middle" x="3131.93" y="-462.4" font-family="Times,serif" font-size="14.00">children</text>
</g>
<!-- Contribution -->
<g id="node9" class="node"><title>Contribution</title>
<ellipse fill="none" stroke="black" cx="1721" cy="-18" rx="60.095" ry="18"/>
<text text-anchor="middle" x="1721" y="-12.4" font-family="Times,serif" font-size="14.00">Contribution</text>
</g>
<!-- Comment&#45;&gt;Contribution -->
<g id="edge23" class="edge"><title>Comment&#45;&gt;Contribution</title>
<path fill="none" stroke="#b66158" d="M549.631,-99.0679C572.182,-95.885 598.841,-92.4079 623,-90 1010.88,-51.34 1478.05,-29.2003 1651.65,-21.8078"/>
<ellipse fill="none" stroke="#b66158" cx="545.481" cy="-99.6599" rx="4.00001" ry="4.00001"/>
<polygon fill="#b66158" stroke="#b66158" points="1651.68,-21.8066 1661.86,-25.8795 1656.67,-21.5951 1661.67,-21.3836 1661.67,-21.3836 1661.67,-21.3836 1656.67,-21.5951 1661.48,-16.8876 1651.68,-21.8066 1651.68,-21.8066"/>
</g>
<!-- User -->
<g id="node19" class="node"><title>User</title>
<ellipse fill="none" stroke="black" cx="1540" cy="-288" rx="28.9087" ry="18"/>
<text text-anchor="middle" x="1540" y="-282.4" font-family="Times,serif" font-size="14.00">User</text>
</g>
<!-- Comment&#45;&gt;User -->
<g id="edge24" class="edge"><title>Comment&#45;&gt;User</title>
<path fill="none" stroke="#f6f033" d="M552.916,-115.69C615.231,-123.341 711.971,-135.859 748,-144 773.913,-149.855 779.592,-154.24 805,-162 832.034,-170.256 840.89,-167.02 866,-180 888.968,-191.873 890.686,-200.932 911.696,-216 935.529,-233.092 939.152,-242.801 967,-252 1066.24,-284.78 1387.48,-287.341 1500.34,-287.196"/>
<polygon fill="#f6f033" stroke="#f6f033" points="552.771,-115.672 543.391,-109.992 547.808,-115.065 542.845,-114.459 542.845,-114.459 542.845,-114.459 547.808,-115.065 542.299,-118.925 552.771,-115.672 552.771,-115.672"/>
<polygon fill="#f6f033" stroke="#f6f033" points="1500.6,-287.195 1510.61,-291.674 1505.6,-287.185 1510.6,-287.174 1510.6,-287.174 1510.6,-287.174 1505.6,-287.185 1510.59,-282.674 1500.6,-287.195 1500.6,-287.195"/>
<text text-anchor="middle" x="934.152" y="-192.4" font-family="Times,serif" font-size="14.00">creators</text>
</g>
<!-- Comment&#45;&gt;User -->
<g id="edge25" class="edge"><title>Comment&#45;&gt;User</title>
<path fill="none" stroke="#df3da5" d="M553.221,-115.469C636.969,-125.137 785.332,-142.398 791,-144 809.371,-149.192 811.691,-156.593 830,-162 884.252,-178.021 908.143,-149.839 956,-180 988.537,-200.505 970.701,-232.757 1004,-252 1046.62,-276.631 1383.6,-284.441 1500.35,-286.422"/>
<polygon fill="#df3da5" stroke="#df3da5" points="553.028,-115.447 543.61,-109.83 548.061,-114.874 543.094,-114.301 543.094,-114.301 543.094,-114.301 548.061,-114.874 542.578,-118.771 553.028,-115.447 553.028,-115.447"/>
<polygon fill="#df3da5" stroke="#df3da5" points="1500.62,-286.426 1510.55,-291.09 1505.62,-286.508 1510.62,-286.591 1510.62,-286.591 1510.62,-286.591 1505.62,-286.508 1510.7,-282.091 1500.62,-286.426 1500.62,-286.426"/>
<text text-anchor="middle" x="1013.83" y="-192.4" font-family="Times,serif" font-size="14.00">contributors</text>
</g>
<!-- ActsAsTaggableOn::Tagging -->
<g id="node35" class="node"><title>ActsAsTaggableOn::Tagging</title>
<ellipse fill="none" stroke="black" cx="554" cy="-18" rx="123.097" ry="18"/>
<text text-anchor="middle" x="554" y="-12.4" font-family="Times,serif" font-size="14.00">ActsAsTaggableOn::Tagging</text>
</g>
<!-- Comment&#45;&gt;ActsAsTaggableOn::Tagging -->
<g id="edge26" class="edge"><title>Comment&#45;&gt;ActsAsTaggableOn::Tagging</title>
<path fill="none" stroke="#14fec0" d="M439.684,-106.776C332.067,-105.351 113.982,-97.1871 153.559,-54 171.719,-34.1835 313.054,-25.5423 422.73,-21.8028"/>
<ellipse fill="none" stroke="#14fec0" cx="443.864" cy="-106.826" rx="4" ry="4"/>
<polygon fill="#14fec0" stroke="#14fec0" points="422.91,-21.7969 433.053,-25.9642 427.907,-21.6318 432.904,-21.4667 432.904,-21.4667 432.904,-21.4667 427.907,-21.6318 432.756,-16.9691 422.91,-21.7969 422.91,-21.7969"/>
<text text-anchor="middle" x="177.721" y="-57.4" font-family="Times,serif" font-size="14.00">taggings</text>
</g>
<!-- ActsAsTaggableOn::Tag -->
<g id="node36" class="node"><title>ActsAsTaggableOn::Tag</title>
<ellipse fill="none" stroke="black" cx="1047" cy="-18" rx="106.344" ry="18"/>
<text text-anchor="middle" x="1047" y="-12.4" font-family="Times,serif" font-size="14.00">ActsAsTaggableOn::Tag</text>
</g>
<!-- Comment&#45;&gt;ActsAsTaggableOn::Tag -->
<g id="edge27" class="edge"><title>Comment&#45;&gt;ActsAsTaggableOn::Tag</title>
<path fill="none" stroke="#1f3c5e" d="M550.074,-97.4165C581.461,-91.2481 621.826,-82.4405 657,-72 678.672,-65.5674 682.571,-59.1931 704.572,-54 779.809,-36.2417 866.445,-27.4935 933.749,-23.1839"/>
<polygon fill="#1f3c5e" stroke="#1f3c5e" points="550.035,-97.424 539.362,-94.9072 545.126,-98.3746 540.217,-99.3252 540.217,-99.3252 540.217,-99.3252 545.126,-98.3746 541.073,-103.743 550.035,-97.424 550.035,-97.424"/>
<polygon fill="#1f3c5e" stroke="#1f3c5e" points="933.976,-23.17 944.234,-27.0462 938.966,-22.8624 943.957,-22.5547 943.957,-22.5547 943.957,-22.5547 938.966,-22.8624 943.68,-18.0632 933.976,-23.17 933.976,-23.17"/>
<text text-anchor="middle" x="732.214" y="-57.4" font-family="Times,serif" font-size="14.00">base_tags</text>
</g>
<!-- Comment&#45;&gt;ActsAsTaggableOn::Tagging -->
<g id="edge28" class="edge"><title>Comment&#45;&gt;ActsAsTaggableOn::Tagging</title>
<path fill="none" stroke="#3a4b5f" d="M440.745,-103.693C365.13,-98.664 238.504,-87.9609 224.462,-72 219.178,-65.9937 219.112,-59.9481 224.462,-54 238.271,-38.6469 340.231,-29.5064 427.129,-24.439"/>
<ellipse fill="none" stroke="#3a4b5f" cx="444.808" cy="-103.959" rx="4" ry="4"/>
<polygon fill="#3a4b5f" stroke="#3a4b5f" points="427.39,-24.4243 437.63,-28.3488 432.382,-24.1402 437.374,-23.8561 437.374,-23.8561 437.374,-23.8561 432.382,-24.1402 437.118,-19.3634 427.39,-24.4243 427.39,-24.4243"/>
<text text-anchor="middle" x="281.769" y="-57.4" font-family="Times,serif" font-size="14.00">public_tag_taggings</text>
</g>
<!-- Comment&#45;&gt;ActsAsTaggableOn::Tag -->
<g id="edge29" class="edge"><title>Comment&#45;&gt;ActsAsTaggableOn::Tag</title>
<path fill="none" stroke="#488fe3" d="M492.595,-79.8175C492.638,-70.4321 494.7,-60.6224 501.455,-54 509.128,-46.4776 779.101,-32.0762 936.322,-24.2976"/>
<polygon fill="#488fe3" stroke="#488fe3" points="492.611,-80.0624 488.771,-90.3339 492.936,-85.0518 493.261,-90.0412 493.261,-90.0412 493.261,-90.0412 492.936,-85.0518 497.752,-89.7486 492.611,-80.0624 492.611,-80.0624"/>
<polygon fill="#488fe3" stroke="#488fe3" points="936.523,-24.2878 946.732,-28.2895 941.516,-24.0414 946.51,-23.795 946.51,-23.795 946.51,-23.795 941.516,-24.0414 946.289,-19.3004 936.523,-24.2878 936.523,-24.2878"/>
<text text-anchor="middle" x="534.272" y="-57.4" font-family="Times,serif" font-size="14.00">public_tags</text>
</g>
<!-- Comment&#45;&gt;ActsAsTaggableOn::Tagging -->
<g id="edge30" class="edge"><title>Comment&#45;&gt;ActsAsTaggableOn::Tagging</title>
<path fill="none" stroke="#cacfeb" d="M440.465,-103.128C392.402,-97.6781 334.949,-84.692 360.586,-54 371.213,-41.2771 401.633,-33.1701 435.292,-28.008"/>
<ellipse fill="none" stroke="#cacfeb" cx="444.716" cy="-103.579" rx="4" ry="4"/>
<polygon fill="#cacfeb" stroke="#cacfeb" points="435.44,-27.9868 445.978,-31.018 440.389,-27.2753 445.338,-26.5638 445.338,-26.5638 445.338,-26.5638 440.389,-27.2753 444.698,-22.1096 435.44,-27.9868 435.44,-27.9868"/>
<text text-anchor="middle" x="419.707" y="-57.4" font-family="Times,serif" font-size="14.00">private_tag_taggings</text>
</g>
<!-- Comment&#45;&gt;ActsAsTaggableOn::Tag -->
<g id="edge31" class="edge"><title>Comment&#45;&gt;ActsAsTaggableOn::Tag</title>
<path fill="none" stroke="#8d8af2" d="M536.925,-89.307C546.77,-84.2621 557.05,-78.383 566,-72 575.361,-65.3245 574.093,-58.7149 584.579,-54 615.679,-40.0163 808.127,-29.2128 934.754,-23.5043"/>
<polygon fill="#8d8af2" stroke="#8d8af2" points="536.642,-89.4466 525.684,-89.8432 532.16,-91.662 527.677,-93.8774 527.677,-93.8774 527.677,-93.8774 532.16,-91.662 529.671,-97.9116 536.642,-89.4466 536.642,-89.4466"/>
<polygon fill="#8d8af2" stroke="#8d8af2" points="934.902,-23.4978 945.093,-27.5473 939.897,-23.2748 944.893,-23.0518 944.893,-23.0518 944.893,-23.0518 939.897,-23.2748 944.692,-18.5562 934.902,-23.4978 934.902,-23.4978"/>
<text text-anchor="middle" x="619.21" y="-57.4" font-family="Times,serif" font-size="14.00">private_tags</text>
</g>
<!-- Comment::Version -->
<g id="node37" class="node"><title>Comment::Version</title>
<ellipse fill="none" stroke="black" cx="83" cy="-18" rx="83.4947" ry="18"/>
<text text-anchor="middle" x="83" y="-12.4" font-family="Times,serif" font-size="14.00">Comment::Version</text>
</g>
<!-- Comment&#45;&gt;Comment::Version -->
<g id="edge32" class="edge"><title>Comment&#45;&gt;Comment::Version</title>
<path fill="none" stroke="#c14029" d="M440.013,-105.518C336.108,-102.308 124.133,-93.2177 98.3379,-72 90.6233,-65.6544 86.6487,-55.6842 84.6472,-46.0951"/>
<ellipse fill="none" stroke="#c14029" cx="444.213" cy="-105.645" rx="4" ry="4"/>
<polygon fill="#c14029" stroke="#c14029" points="84.622,-45.9227 87.6183,-35.3742 83.8941,-40.976 83.1663,-36.0292 83.1663,-36.0292 83.1663,-36.0292 83.8941,-40.976 78.7142,-36.6843 84.622,-45.9227 84.622,-45.9227"/>
<text text-anchor="middle" x="122.331" y="-57.4" font-family="Times,serif" font-size="14.00">versions</text>
</g>
<!-- Comment&#45;&gt;Comment -->
<g id="edge33" class="edge"><title>Comment&#45;&gt;Comment</title>
<path fill="none" stroke="#5a2336" d="M548.883,-115.712C557.808,-114.666 564,-112.095 564,-108 564,-104.232 558.759,-101.755 550.971,-100.568"/>
<ellipse fill="none" stroke="#5a2336" cx="544.81" cy="-115.974" rx="4" ry="4"/>
<polygon fill="#5a2336" stroke="#5a2336" points="550.788,-100.554 541.172,-95.282 545.803,-100.161 540.819,-99.7681 540.819,-99.7681 540.819,-99.7681 545.803,-100.161 540.465,-104.254 550.788,-100.554 550.788,-100.554"/>
<text text-anchor="middle" x="586.935" y="-102.4" font-family="Times,serif" font-size="14.00">children</text>
</g>
<!-- ConfigurableSetting -->
<g id="node7" class="node"><title>ConfigurableSetting</title>
<ellipse fill="none" stroke="black" cx="2213" cy="-468" rx="88.2385" ry="18"/>
<text text-anchor="middle" x="2213" y="-462.4" font-family="Times,serif" font-size="14.00">ConfigurableSetting</text>
</g>
<!-- ContentType -->
<g id="node8" class="node"><title>ContentType</title>
<ellipse fill="none" stroke="black" cx="3424" cy="-468" rx="60.1766" ry="18"/>
<text text-anchor="middle" x="3424" y="-462.4" font-family="Times,serif" font-size="14.00">ContentType</text>
</g>
<!-- ContentTypeToFieldMapping -->
<g id="node38" class="node"><title>ContentTypeToFieldMapping</title>
<ellipse fill="none" stroke="black" cx="3274" cy="-378" rx="125.336" ry="18"/>
<text text-anchor="middle" x="3274" y="-372.4" font-family="Times,serif" font-size="14.00">ContentTypeToFieldMapping</text>
</g>
<!-- ContentType&#45;&gt;ContentTypeToFieldMapping -->
<g id="edge36" class="edge"><title>ContentType&#45;&gt;ContentTypeToFieldMapping</title>
<path fill="none" stroke="#d51957" d="M3390.68,-447.455C3367.08,-433.606 3335.4,-415.022 3311.01,-400.711"/>
<ellipse fill="none" stroke="#d51957" cx="3394.42" cy="-449.647" rx="4.00002" ry="4.00002"/>
<polygon fill="#d51957" stroke="#d51957" points="3311,-400.709 3304.66,-391.768 3306.69,-398.179 3302.38,-395.649 3302.38,-395.649 3302.38,-395.649 3306.69,-398.179 3300.1,-399.53 3311,-400.709 3311,-400.709"/>
</g>
<!-- FormField -->
<g id="node39" class="node"><title>FormField</title>
<ellipse fill="none" stroke="black" cx="3662" cy="-378" rx="51.2238" ry="18"/>
<text text-anchor="middle" x="3662" y="-372.4" font-family="Times,serif" font-size="14.00">FormField</text>
</g>
<!-- ContentType&#45;&gt;FormField -->
<g id="edge37" class="edge"><title>ContentType&#45;&gt;FormField</title>
<path fill="none" stroke="#df09ef" d="M3469.89,-450.033C3512.78,-434.172 3576.37,-410.661 3618.48,-395.09"/>
<polygon fill="#df09ef" stroke="#df09ef" points="3469.79,-450.071 3458.85,-449.318 3465.1,-451.805 3460.41,-453.539 3460.41,-453.539 3460.41,-453.539 3465.1,-451.805 3461.97,-457.76 3469.79,-450.071 3469.79,-450.071"/>
<polygon fill="#df09ef" stroke="#df09ef" points="3618.53,-395.072 3629.47,-395.824 3623.22,-393.338 3627.91,-391.604 3627.91,-391.604 3627.91,-391.604 3623.22,-393.338 3626.35,-387.383 3618.53,-395.072 3618.53,-395.072"/>
</g>
<!-- RequiredFormField -->
<g id="node40" class="node"><title>RequiredFormField</title>
<ellipse fill="none" stroke="black" cx="3505" cy="-378" rx="87.3186" ry="18"/>
<text text-anchor="middle" x="3505" y="-372.4" font-family="Times,serif" font-size="14.00">RequiredFormField</text>
</g>
<!-- ContentType&#45;&gt;RequiredFormField -->
<g id="edge38" class="edge"><title>ContentType&#45;&gt;RequiredFormField</title>
<path fill="none" stroke="#d1fa7a" d="M3446.07,-443.027C3457.37,-430.746 3471.11,-415.819 3482.48,-403.468"/>
<polygon fill="#d1fa7a" stroke="#d1fa7a" points="3446.01,-443.09 3435.92,-447.4 3442.62,-446.769 3439.24,-450.448 3439.24,-450.448 3439.24,-450.448 3442.62,-446.769 3442.55,-453.495 3446.01,-443.09 3446.01,-443.09"/>
<polygon fill="#d1fa7a" stroke="#d1fa7a" points="3482.79,-403.135 3492.87,-398.825 3486.17,-399.456 3489.56,-395.777 3489.56,-395.777 3489.56,-395.777 3486.17,-399.456 3486.25,-392.73 3482.79,-403.135 3482.79,-403.135"/>
</g>
<!-- ImportArchiveFile -->
<g id="node41" class="node"><title>ImportArchiveFile</title>
<ellipse fill="none" stroke="black" cx="3706" cy="-108" rx="83.1673" ry="18"/>
<text text-anchor="middle" x="3706" y="-102.4" font-family="Times,serif" font-size="14.00">ImportArchiveFile</text>
</g>
<!-- Import&#45;&gt;ImportArchiveFile -->
<g id="edge41" class="edge"><title>Import&#45;&gt;ImportArchiveFile</title>
<path fill="none" stroke="#2139fc" d="M3706,-171.462C3706,-159.712 3706,-145.816 3706,-134.118"/>
<ellipse fill="none" stroke="#2139fc" cx="3706" cy="-175.614" rx="4" ry="4"/>
<ellipse fill="#2139fc" stroke="#2139fc" cx="3706" cy="-130.05" rx="4" ry="4"/>
</g>
<!-- OaiPmhRepositorySet -->
<g id="node11" class="node"><title>OaiPmhRepositorySet</title>
<ellipse fill="none" stroke="black" cx="2624" cy="-468" rx="97.1175" ry="18"/>
<text text-anchor="middle" x="2624" y="-462.4" font-family="Times,serif" font-size="14.00">OaiPmhRepositorySet</text>
</g>
<!-- PqfQuery -->
<g id="node12" class="node"><title>PqfQuery</title>
<polygon fill="none" stroke="black" points="4206.33,-486 4135.67,-486 4135.67,-450 4206.33,-450 4206.33,-486"/>
<text text-anchor="middle" x="4171" y="-462.4" font-family="Times,serif" font-size="14.00">PqfQuery</text>
</g>
<!-- RedirectRegistration -->
<g id="node14" class="node"><title>RedirectRegistration</title>
<ellipse fill="none" stroke="black" cx="2868" cy="-468" rx="90.4275" ry="18"/>
<text text-anchor="middle" x="2868" y="-462.4" font-family="Times,serif" font-size="14.00">RedirectRegistration</text>
</g>
<!-- UserRole -->
<g id="node22" class="node"><title>UserRole</title>
<ellipse fill="none" stroke="black" cx="2110" cy="-288" rx="47.264" ry="18"/>
<text text-anchor="middle" x="2110" y="-282.4" font-family="Times,serif" font-size="14.00">UserRole</text>
</g>
<!-- Role&#45;&gt;UserRole -->
<g id="edge47" class="edge"><title>Role&#45;&gt;UserRole</title>
<path fill="none" stroke="#d3aaa9" d="M1840.52,-367.264C1894.85,-351.487 2002.23,-320.301 2063.77,-302.426"/>
<ellipse fill="none" stroke="#d3aaa9" cx="1836.67" cy="-368.382" rx="4.00001" ry="4.00001"/>
<polygon fill="#d3aaa9" stroke="#d3aaa9" points="2064,-302.359 2074.86,-303.891 2068.8,-300.964 2073.61,-299.57 2073.61,-299.57 2073.61,-299.57 2068.8,-300.964 2072.35,-295.248 2064,-302.359 2064,-302.359"/>
</g>
<!-- Role&#45;&gt;User -->
<g id="edge48" class="edge"><title>Role&#45;&gt;User</title>
<path fill="none" stroke="#6e0484" d="M1809.7,-349.736C1809.14,-340.424 1806.67,-330.684 1800,-324 1769.91,-293.836 1644.94,-289.067 1579.84,-288.686"/>
<polygon fill="#6e0484" stroke="#6e0484" points="1809.7,-349.882 1805.14,-359.856 1809.67,-354.882 1809.64,-359.882 1809.64,-359.882 1809.64,-359.882 1809.67,-354.882 1814.14,-359.908 1809.7,-349.882 1809.7,-349.882"/>
<polygon fill="#6e0484" stroke="#6e0484" points="1579.55,-288.685 1569.56,-284.159 1574.55,-288.672 1569.55,-288.659 1569.55,-288.659 1569.55,-288.659 1574.55,-288.672 1569.54,-293.159 1579.55,-288.685 1579.55,-288.685"/>
</g>
<!-- Search -->
<g id="node16" class="node"><title>Search</title>
<ellipse fill="none" stroke="black" cx="2837" cy="-198" rx="36.967" ry="18"/>
<text text-anchor="middle" x="2837" y="-192.4" font-family="Times,serif" font-size="14.00">Search</text>
</g>
<!-- SystemSetting -->
<g id="node17" class="node"><title>SystemSetting</title>
<ellipse fill="none" stroke="black" cx="3239" cy="-468" rx="66.2576" ry="18"/>
<text text-anchor="middle" x="3239" y="-462.4" font-family="Times,serif" font-size="14.00">SystemSetting</text>
</g>
<!-- TopicType -->
<g id="node18" class="node"><title>TopicType</title>
<ellipse fill="none" stroke="black" cx="3722" cy="-468" rx="52.0824" ry="18"/>
<text text-anchor="middle" x="3722" y="-462.4" font-family="Times,serif" font-size="14.00">TopicType</text>
</g>
<!-- TopicType&#45;&gt;Topic -->
<g id="edge52" class="edge"><title>TopicType&#45;&gt;Topic</title>
<path fill="none" stroke="#0280ea" d="M3730.05,-442.172C3736.06,-418.423 3740.42,-382.926 3722,-360 3686.5,-315.824 2781.28,-150.651 2725,-144 2551.04,-123.443 2002.18,-112.499 1844.03,-109.718"/>
<ellipse fill="none" stroke="#0280ea" cx="3728.94" cy="-446.185" rx="4.00001" ry="4.00001"/>
<polygon fill="#0280ea" stroke="#0280ea" points="1843.76,-109.713 1833.84,-105.04 1838.76,-109.626 1833.76,-109.539 1833.76,-109.539 1833.76,-109.539 1838.76,-109.626 1833.68,-114.039 1843.76,-109.713 1843.76,-109.713"/>
</g>
<!-- TopicTypeToFieldMapping -->
<g id="node43" class="node"><title>TopicTypeToFieldMapping</title>
<ellipse fill="none" stroke="black" cx="3887" cy="-378" rx="116.244" ry="18"/>
<text text-anchor="middle" x="3887" y="-372.4" font-family="Times,serif" font-size="14.00">TopicTypeToFieldMapping</text>
</g>
<!-- TopicType&#45;&gt;TopicTypeToFieldMapping -->
<g id="edge53" class="edge"><title>TopicType&#45;&gt;TopicTypeToFieldMapping</title>
<path fill="none" stroke="#5a6626" d="M3756.43,-448.635C3782.84,-434.552 3819.34,-415.087 3847.03,-400.317"/>
<ellipse fill="none" stroke="#5a6626" cx="3752.78" cy="-450.586" rx="4.00002" ry="4.00002"/>
<polygon fill="#5a6626" stroke="#5a6626" points="3847.24,-400.208 3858.18,-399.473 3851.65,-397.855 3856.06,-395.502 3856.06,-395.502 3856.06,-395.502 3851.65,-397.855 3853.94,-391.532 3847.24,-400.208 3847.24,-400.208"/>
</g>
<!-- TopicType&#45;&gt;FormField -->
<g id="edge54" class="edge"><title>TopicType&#45;&gt;FormField</title>
<path fill="none" stroke="#d7b581" d="M3704.52,-441.36C3696.51,-429.608 3687.04,-415.726 3679.08,-404.047"/>
<polygon fill="#d7b581" stroke="#d7b581" points="3704.8,-441.77 3706.71,-452.568 3707.61,-445.902 3710.43,-450.033 3710.43,-450.033 3710.43,-450.033 3707.61,-445.902 3714.15,-447.498 3704.8,-441.77 3704.8,-441.77"/>
<polygon fill="#d7b581" stroke="#d7b581" points="3678.96,-403.879 3677.05,-393.082 3676.15,-399.748 3673.33,-395.617 3673.33,-395.617 3673.33,-395.617 3676.15,-399.748 3669.61,-398.152 3678.96,-403.879 3678.96,-403.879"/>
</g>
<!-- TopicType&#45;&gt;RequiredFormField -->
<g id="edge55" class="edge"><title>TopicType&#45;&gt;RequiredFormField</title>
<path fill="none" stroke="#06374c" d="M3680.1,-450.009C3643.46,-435.151 3590.3,-413.591 3552.17,-398.131"/>
<polygon fill="#06374c" stroke="#06374c" points="3680.25,-450.067 3687.82,-457.996 3684.88,-451.946 3689.51,-453.826 3689.51,-453.826 3689.51,-453.826 3684.88,-451.946 3691.2,-449.655 3680.25,-450.067 3680.25,-450.067"/>
<polygon fill="#06374c" stroke="#06374c" points="3552.09,-398.098 3544.52,-390.169 3547.46,-396.218 3542.83,-394.339 3542.83,-394.339 3542.83,-394.339 3547.46,-396.218 3541.13,-398.51 3552.09,-398.098 3552.09,-398.098"/>
</g>
<!-- TopicType&#45;&gt;Import -->
<g id="edge56" class="edge"><title>TopicType&#45;&gt;Import</title>
<path fill="none" stroke="#3ebfe2" d="M3779.34,-461.243C3855.47,-452.28 3983.63,-432.148 4012,-396 4091.28,-294.964 3851.74,-230.175 3749.69,-207.771"/>
<ellipse fill="none" stroke="#3ebfe2" cx="3775.21" cy="-461.72" rx="4.00001" ry="4.00001"/>
<polygon fill="#3ebfe2" stroke="#3ebfe2" points="3749.46,-207.721 3740.63,-201.214 3744.57,-206.667 3739.68,-205.613 3739.68,-205.613 3739.68,-205.613 3744.57,-206.667 3738.73,-210.012 3749.46,-207.721 3749.46,-207.721"/>
</g>
<!-- TopicType&#45;&gt;TopicType -->
<g id="edge57" class="edge"><title>TopicType&#45;&gt;TopicType</title>
<path fill="none" stroke="#588ffd" d="M3778.5,-474.067C3786.58,-473.091 3792,-471.068 3792,-468 3792,-465.182 3787.42,-463.246 3780.42,-462.193"/>
<ellipse fill="none" stroke="#588ffd" cx="3774.41" cy="-474.372" rx="4" ry="4"/>
<polygon fill="#588ffd" stroke="#588ffd" points="3780.38,-462.19 3770.81,-456.847 3775.4,-461.76 3770.42,-461.331 3770.42,-461.331 3770.42,-461.331 3775.4,-461.76 3770.03,-465.814 3780.38,-462.19 3780.38,-462.19"/>
<text text-anchor="middle" x="3814.93" y="-462.4" font-family="Times,serif" font-size="14.00">children</text>
</g>
<!-- User&#45;&gt;Import -->
<g id="edge59" class="edge"><title>User&#45;&gt;Import</title>
<path fill="none" stroke="#3c02a9" d="M1577.22,-285.641C1661.76,-282.581 1874.77,-275.028 2053,-270 2396.51,-260.309 2482.65,-266.332 2826,-252 3145,-238.684 3528.42,-211.878 3659.47,-202.409"/>
<ellipse fill="none" stroke="#3c02a9" cx="1573.2" cy="-285.786" rx="4" ry="4"/>
<polygon fill="#3c02a9" stroke="#3c02a9" points="3659.59,-202.401 3669.89,-206.166 3664.57,-202.039 3669.56,-201.678 3669.56,-201.678 3669.56,-201.678 3664.57,-202.039 3669.24,-197.19 3659.59,-202.401 3659.59,-202.401"/>
</g>
<!-- User&#45;&gt;Contribution -->
<g id="edge60" class="edge"><title>User&#45;&gt;Contribution</title>
<path fill="none" stroke="#f6fb07" d="M1526.81,-263.464C1525.24,-259.728 1523.88,-255.831 1523,-252 1515.5,-219.391 1521.21,-203.525 1545,-180 1568.27,-156.993 1656.81,-146.885 1682,-126 1703.83,-107.9 1706.86,-98.8491 1716,-72 1718.76,-63.8793 1720.18,-54.6805 1720.86,-46.2527"/>
<ellipse fill="none" stroke="#f6fb07" cx="1528.57" cy="-267.21" rx="4.00002" ry="4.00002"/>
<polygon fill="#f6fb07" stroke="#f6fb07" points="1720.87,-46.1159 1725.88,-36.3598 1721.13,-41.1225 1721.38,-36.1291 1721.38,-36.1291 1721.38,-36.1291 1721.13,-41.1225 1716.89,-35.8983 1720.87,-46.1159 1720.87,-46.1159"/>
</g>
<!-- User&#45;&gt;Topic -->
<g id="edge61" class="edge"><title>User&#45;&gt;Topic</title>
<path fill="none" stroke="#c1822b" d="M1528.29,-261.15C1525.91,-252.272 1525.15,-242.449 1529,-234 1532.79,-225.676 1583.1,-184.346 1591.15,-180 1617.09,-165.993 1628.12,-174.104 1655,-162 1668.49,-155.926 1669.43,-149.895 1683,-144 1712.86,-131.029 1722.88,-135.548 1754,-126 1757.61,-124.891 1761.36,-123.668 1765.09,-122.4"/>
<polygon fill="#c1822b" stroke="#c1822b" points="1528.3,-261.178 1527.26,-272.094 1529.91,-265.912 1531.52,-270.647 1531.52,-270.647 1531.52,-270.647 1529.91,-265.912 1535.78,-269.2 1528.3,-261.178 1528.3,-261.178"/>
<polygon fill="#c1822b" stroke="#c1822b" points="1765.37,-122.301 1776.29,-123.239 1770.09,-120.647 1774.8,-118.993 1774.8,-118.993 1774.8,-118.993 1770.09,-120.647 1773.32,-114.746 1765.37,-122.301 1765.37,-122.301"/>
<text text-anchor="middle" x="1632.42" y="-192.4" font-family="Times,serif" font-size="14.00">created_topics</text>
</g>
<!-- User&#45;&gt;Topic -->
<g id="edge62" class="edge"><title>User&#45;&gt;Topic</title>
<path fill="none" stroke="#44cf26" d="M1541.18,-260.006C1542.98,-250.515 1546.67,-240.586 1554,-234 1593.46,-198.544 1625.63,-241.77 1672,-216 1690.41,-205.772 1687.31,-194.269 1702.8,-180 1724.23,-160.255 1751.21,-141.092 1771.47,-127.662"/>
<polygon fill="#44cf26" stroke="#44cf26" points="1541.18,-260.035 1535.43,-269.375 1540.54,-264.994 1539.89,-269.953 1539.89,-269.953 1539.89,-269.953 1540.54,-264.994 1544.36,-270.531 1541.18,-260.035 1541.18,-260.035"/>
<polygon fill="#44cf26" stroke="#44cf26" points="1771.62,-127.568 1782.45,-125.858 1775.8,-124.83 1779.98,-122.093 1779.98,-122.093 1779.98,-122.093 1775.8,-124.83 1777.52,-118.327 1771.62,-127.568 1771.62,-127.568"/>
<text text-anchor="middle" x="1755.1" y="-192.4" font-family="Times,serif" font-size="14.00">contributed_topics</text>
</g>
<!-- User&#45;&gt;StillImage -->
<g id="edge63" class="edge"><title>User&#45;&gt;StillImage</title>
<path fill="none" stroke="#f48e9f" d="M1550.31,-261.258C1555.77,-251.031 1563.53,-240.236 1573.93,-234 1617.53,-207.859 1751.87,-224.465 1802,-216 1807.54,-215.065 1813.29,-213.881 1818.98,-212.575"/>
<polygon fill="#f48e9f" stroke="#f48e9f" points="1550.28,-261.331 1541.89,-268.392 1548.11,-265.837 1545.94,-270.342 1545.94,-270.342 1545.94,-270.342 1548.11,-265.837 1550,-272.293 1550.28,-261.331 1550.28,-261.331"/>
<polygon fill="#f48e9f" stroke="#f48e9f" points="1819.38,-212.478 1830.16,-214.491 1824.23,-211.298 1829.09,-210.118 1829.09,-210.118 1829.09,-210.118 1824.23,-211.298 1828.03,-205.745 1819.38,-212.478 1819.38,-212.478"/>
<text text-anchor="middle" x="1631.53" y="-237.4" font-family="Times,serif" font-size="14.00">created_still_images</text>
</g>
<!-- User&#45;&gt;StillImage -->
<g id="edge64" class="edge"><title>User&#45;&gt;StillImage</title>
<path fill="none" stroke="#8bc006" d="M1578.7,-282.676C1609.74,-278.107 1653.78,-269.096 1689,-252 1700.55,-246.396 1699.94,-239.406 1711.58,-234 1748.74,-216.741 1762.07,-225.188 1802,-216 1807.26,-214.79 1812.74,-213.463 1818.19,-212.1"/>
<polygon fill="#8bc006" stroke="#8bc006" points="1578.61,-282.689 1568.09,-279.603 1573.66,-283.375 1568.71,-284.061 1568.71,-284.061 1568.71,-284.061 1573.66,-283.375 1569.33,-288.518 1578.61,-282.689 1578.61,-282.689"/>
<polygon fill="#8bc006" stroke="#8bc006" points="1818.22,-212.092 1829.02,-213.986 1823.06,-210.858 1827.91,-209.625 1827.91,-209.625 1827.91,-209.625 1823.06,-210.858 1826.8,-205.264 1818.22,-212.092 1818.22,-212.092"/>
<text text-anchor="middle" x="1781.21" y="-237.4" font-family="Times,serif" font-size="14.00">contributed_still_images</text>
</g>
<!-- User&#45;&gt;AudioRecording -->
<g id="edge65" class="edge"><title>User&#45;&gt;AudioRecording</title>
<path fill="none" stroke="#48738f" d="M1579.55,-286.742C1695.14,-285.66 2026.78,-280.114 2066,-252 2074.59,-245.84 2079.84,-235.678 2083.04,-225.891"/>
<polygon fill="#48738f" stroke="#48738f" points="1579.37,-286.743 1569.33,-282.331 1574.37,-286.787 1569.37,-286.83 1569.37,-286.83 1569.37,-286.83 1574.37,-286.787 1569.41,-291.33 1579.37,-286.743 1579.37,-286.743"/>
<polygon fill="#48738f" stroke="#48738f" points="2083.1,-225.671 2090.04,-217.177 2084.4,-220.841 2085.69,-216.012 2085.69,-216.012 2085.69,-216.012 2084.4,-220.841 2081.35,-214.847 2083.1,-225.671 2083.1,-225.671"/>
<text text-anchor="middle" x="2152.3" y="-237.4" font-family="Times,serif" font-size="14.00">created_audio_recordings</text>
</g>
<!-- User&#45;&gt;AudioRecording -->
<g id="edge66" class="edge"><title>User&#45;&gt;AudioRecording</title>
<path fill="none" stroke="#0e7e99" d="M1579.34,-286.514C1639.53,-284.906 1757.66,-278.321 1854,-252 1872.82,-246.857 1875.41,-239.776 1894.05,-234 1932.14,-222.198 1975.74,-213.888 2011.95,-208.336"/>
<polygon fill="#0e7e99" stroke="#0e7e99" points="1579.13,-286.519 1569.03,-282.255 1574.13,-286.636 1569.14,-286.753 1569.14,-286.753 1569.14,-286.753 1574.13,-286.636 1569.24,-291.252 1579.13,-286.519 1579.13,-286.519"/>
<polygon fill="#0e7e99" stroke="#0e7e99" points="2012.06,-208.319 2022.62,-211.294 2017.01,-207.581 2021.95,-206.843 2021.95,-206.843 2021.95,-206.843 2017.01,-207.581 2021.29,-202.392 2012.06,-208.319 2012.06,-208.319"/>
<text text-anchor="middle" x="1978.98" y="-237.4" font-family="Times,serif" font-size="14.00">contributed_audio_recordings</text>
</g>
<!-- User&#45;&gt;Video -->
<g id="edge67" class="edge"><title>User&#45;&gt;Video</title>
<path fill="none" stroke="#442fa5" d="M1579.35,-286.395C1706.02,-284.229 2102.25,-275.686 2228,-252 2252.88,-247.314 2258.01,-241.97 2282.04,-234 2304.54,-226.539 2329.73,-218.216 2349.9,-211.559"/>
<polygon fill="#442fa5" stroke="#442fa5" points="1579.32,-286.396 1569.24,-282.064 1574.32,-286.479 1569.32,-286.563 1569.32,-286.563 1569.32,-286.563 1574.32,-286.479 1569.4,-291.062 1579.32,-286.396 1579.32,-286.396"/>
<polygon fill="#442fa5" stroke="#442fa5" points="2350.16,-211.473 2361.07,-212.613 2354.91,-209.906 2359.66,-208.34 2359.66,-208.34 2359.66,-208.34 2354.91,-209.906 2358.25,-204.066 2350.16,-211.473 2350.16,-211.473"/>
<text text-anchor="middle" x="2324.98" y="-237.4" font-family="Times,serif" font-size="14.00">created_videos</text>
</g>
<!-- User&#45;&gt;Video -->
<g id="edge68" class="edge"><title>User&#45;&gt;Video</title>
<path fill="none" stroke="#d098e4" d="M1579.14,-285.623C1741.99,-279.86 2357.83,-257.706 2366,-252 2374.67,-245.944 2379.93,-235.8 2383.12,-225.998"/>
<polygon fill="#d098e4" stroke="#d098e4" points="1579.07,-285.626 1568.92,-281.482 1574.07,-285.802 1569.08,-285.979 1569.08,-285.979 1569.08,-285.979 1574.07,-285.802 1569.24,-290.476 1579.07,-285.626 1579.07,-285.626"/>
<polygon fill="#d098e4" stroke="#d098e4" points="2383.18,-225.759 2390.1,-217.249 2384.47,-220.926 2385.75,-216.094 2385.75,-216.094 2385.75,-216.094 2384.47,-220.926 2381.4,-214.938 2383.18,-225.759 2383.18,-225.759"/>
<text text-anchor="middle" x="2433.66" y="-237.4" font-family="Times,serif" font-size="14.00">contributed_videos</text>
</g>
<!-- User&#45;&gt;WebLink -->
<g id="edge69" class="edge"><title>User&#45;&gt;WebLink</title>
<path fill="none" stroke="#8b4229" d="M1500.34,-287.727C1454.04,-287.05 1376.26,-281.083 1317.04,-252 1306.59,-246.867 1308.35,-239.333 1298,-234 1292.3,-231.065 1221.88,-217.711 1171.35,-208.375"/>
<polygon fill="#8b4229" stroke="#8b4229" points="1500.56,-287.729 1510.53,-292.297 1505.56,-287.763 1510.56,-287.798 1510.56,-287.798 1510.56,-287.798 1505.56,-287.763 1510.59,-283.298 1500.56,-287.729 1500.56,-287.729"/>
<polygon fill="#8b4229" stroke="#8b4229" points="1171.05,-208.32 1162.03,-202.081 1166.13,-207.413 1161.21,-206.507 1161.21,-206.507 1161.21,-206.507 1166.13,-207.413 1160.4,-210.932 1171.05,-208.32 1171.05,-208.32"/>
<text text-anchor="middle" x="1370.48" y="-237.4" font-family="Times,serif" font-size="14.00">created_web_links</text>
</g>
<!-- User&#45;&gt;WebLink -->
<g id="edge70" class="edge"><title>User&#45;&gt;WebLink</title>
<path fill="none" stroke="#0441f8" d="M1500.5,-287.413C1383.52,-288.226 1044.89,-287.469 1011.69,-252 1006.22,-246.159 1006.98,-240.468 1011.69,-234 1015.6,-228.628 1045.29,-219.241 1072.6,-211.54"/>
<polygon fill="#0441f8" stroke="#0441f8" points="1500.8,-287.411 1510.83,-291.833 1505.8,-287.372 1510.8,-287.333 1510.8,-287.333 1510.8,-287.333 1505.8,-287.372 1510.76,-282.833 1500.8,-287.411 1500.8,-287.411"/>
<polygon fill="#0441f8" stroke="#0441f8" points="1072.86,-211.467 1083.7,-213.126 1077.68,-210.128 1082.5,-208.79 1082.5,-208.79 1082.5,-208.79 1077.68,-210.128 1081.3,-204.454 1072.86,-211.467 1072.86,-211.467"/>
<text text-anchor="middle" x="1076.16" y="-237.4" font-family="Times,serif" font-size="14.00">contributed_web_links</text>
</g>
<!-- User&#45;&gt;Document -->
<g id="edge71" class="edge"><title>User&#45;&gt;Document</title>
<path fill="none" stroke="#bb1da7" d="M1579.1,-285.715C1755.34,-279.907 2468.22,-256.198 2491,-252 2515.44,-247.495 2520.16,-241.233 2543.94,-234 2570.19,-226.015 2599.7,-217.997 2623.96,-211.654"/>
<polygon fill="#bb1da7" stroke="#bb1da7" points="1578.98,-285.719 1568.84,-281.551 1573.98,-285.884 1568.98,-286.049 1568.98,-286.049 1568.98,-286.049 1573.98,-285.884 1569.13,-290.546 1578.98,-285.719 1578.98,-285.719"/>
<polygon fill="#bb1da7" stroke="#bb1da7" points="2623.99,-211.646 2634.8,-213.487 2628.83,-210.389 2633.67,-209.132 2633.67,-209.132 2633.67,-209.132 2628.83,-210.389 2632.54,-204.776 2623.99,-211.646 2623.99,-211.646"/>
<text text-anchor="middle" x="2598.03" y="-237.4" font-family="Times,serif" font-size="14.00">created_documents</text>
</g>
<!-- User&#45;&gt;Document -->
<g id="edge72" class="edge"><title>User&#45;&gt;Document</title>
<path fill="none" stroke="#80bde8" d="M1579.29,-285.657C1665.21,-282.728 1876.23,-275.585 2053,-270 2086.28,-268.949 2624.59,-270.9 2652,-252 2660.7,-245.998 2665.97,-235.863 2669.16,-226.053"/>
<polygon fill="#80bde8" stroke="#80bde8" points="1579.2,-285.66 1569.05,-281.503 1574.21,-285.83 1569.21,-286.001 1569.21,-286.001 1569.21,-286.001 1574.21,-285.83 1569.36,-290.498 1579.2,-285.66 1579.2,-285.66"/>
<polygon fill="#80bde8" stroke="#80bde8" points="2669.22,-225.804 2676.13,-217.286 2670.5,-220.97 2671.78,-216.136 2671.78,-216.136 2671.78,-216.136 2670.5,-220.97 2667.43,-214.986 2669.22,-225.804 2669.22,-225.804"/>
<text text-anchor="middle" x="2732.71" y="-237.4" font-family="Times,serif" font-size="14.00">contributed_documents</text>
</g>
<!-- User&#45;&gt;Comment -->
<g id="edge73" class="edge"><title>User&#45;&gt;Comment</title>
<path fill="none" stroke="#8f83a8" d="M1500.67,-286.19C1333.01,-282.446 683.158,-264.867 607.048,-216 575.084,-195.478 588.764,-169.923 561,-144 553.998,-137.463 545.547,-131.733 537.114,-126.904"/>
<polygon fill="#8f83a8" stroke="#8f83a8" points="1500.78,-286.192 1510.68,-290.911 1505.78,-286.302 1510.78,-286.412 1510.78,-286.412 1510.78,-286.412 1505.78,-286.302 1510.88,-281.913 1500.78,-286.192 1500.78,-286.192"/>
<polygon fill="#8f83a8" stroke="#8f83a8" points="536.846,-126.76 530.171,-118.06 532.442,-124.391 528.039,-122.023 528.039,-122.023 528.039,-122.023 532.442,-124.391 525.907,-125.986 536.846,-126.76 536.846,-126.76"/>
<text text-anchor="middle" x="660.476" y="-192.4" font-family="Times,serif" font-size="14.00">created_comments</text>
</g>
<!-- User&#45;&gt;Comment -->
<g id="edge74" class="edge"><title>User&#45;&gt;Comment</title>
<path fill="none" stroke="#78b776" d="M1500.36,-285.787C1346.91,-280.783 797.282,-259.918 733.696,-216 718.325,-205.383 726.6,-191.655 712,-180 665.777,-143.102 599.62,-125.05 552.928,-116.438"/>
<polygon fill="#78b776" stroke="#78b776" points="1500.72,-285.798 1510.57,-290.617 1505.72,-285.959 1510.71,-286.119 1510.71,-286.119 1510.71,-286.119 1505.72,-285.959 1510.86,-281.622 1500.72,-285.798 1500.72,-285.798"/>
<polygon fill="#78b776" stroke="#78b776" points="552.829,-116.421 543.758,-110.259 547.904,-115.556 542.979,-114.691 542.979,-114.691 542.979,-114.691 547.904,-115.556 542.201,-119.123 552.829,-116.421 552.829,-116.421"/>
<text text-anchor="middle" x="798.152" y="-192.4" font-family="Times,serif" font-size="14.00">contributed_comments</text>
</g>
<!-- UserPortraitRelation -->
<g id="node44" class="node"><title>UserPortraitRelation</title>
<ellipse fill="none" stroke="black" cx="1314" cy="-198" rx="90.4346" ry="18"/>
<text text-anchor="middle" x="1314" y="-192.4" font-family="Times,serif" font-size="14.00">UserPortraitRelation</text>
</g>
<!-- User&#45;&gt;UserPortraitRelation -->
<g id="edge75" class="edge"><title>User&#45;&gt;UserPortraitRelation</title>
<path fill="none" stroke="#0cb98c" d="M1509.96,-272.783C1479.09,-258.212 1434.37,-237.239 1426,-234 1409.24,-227.519 1390.74,-221.35 1373.68,-216.047"/>
<ellipse fill="none" stroke="#0cb98c" cx="1513.86" cy="-274.627" rx="4.00002" ry="4.00002"/>
<polygon fill="#0cb98c" stroke="#0cb98c" points="1373.39,-215.958 1365.15,-208.726 1368.61,-214.493 1363.83,-213.028 1363.83,-213.028 1363.83,-213.028 1368.61,-214.493 1362.51,-217.331 1373.39,-215.958 1373.39,-215.958"/>
</g>
<!-- Portrait -->
<g id="node45" class="node"><title>Portrait</title>
<ellipse fill="none" stroke="black" cx="1463" cy="-198" rx="40.0039" ry="18"/>
<text text-anchor="middle" x="1463" y="-192.4" font-family="Times,serif" font-size="14.00">Portrait</text>
</g>
<!-- User&#45;&gt;Portrait -->
<g id="edge76" class="edge"><title>User&#45;&gt;Portrait</title>
<path fill="none" stroke="#3599d3" d="M1506.51,-273.646C1496.46,-268.232 1486.21,-261.075 1479,-252 1473.15,-244.645 1469.44,-235.179 1467.08,-226.287"/>
<polygon fill="#3599d3" stroke="#3599d3" points="1506.62,-273.701 1513.59,-282.167 1511.1,-275.917 1515.58,-278.134 1515.58,-278.134 1515.58,-278.134 1511.1,-275.917 1517.58,-274.1 1506.62,-273.701 1506.62,-273.701"/>
<polygon fill="#3599d3" stroke="#3599d3" points="1467.03,-226.042 1469.29,-215.311 1465.96,-221.158 1464.89,-216.273 1464.89,-216.273 1464.89,-216.273 1465.96,-221.158 1460.49,-217.235 1467.03,-226.042 1467.03,-226.042"/>
</g>
<!-- User&#45;&gt;Basket -->
<g id="edge77" class="edge"><title>User&#45;&gt;Basket</title>
<path fill="none" stroke="#8d32c4" d="M1575.59,-295.618C1613.95,-304.386 1674.77,-323.239 1714,-360 1737.24,-381.775 1751.35,-416.134 1758.89,-440.02"/>
<ellipse fill="none" stroke="#8d32c4" cx="1571.67" cy="-294.755" rx="4.00001" ry="4.00001"/>
<polygon fill="#8d32c4" stroke="#8d32c4" points="1758.97,-440.277 1757.51,-451.145 1760.4,-445.069 1761.82,-449.861 1761.82,-449.861 1761.82,-449.861 1760.4,-445.069 1766.13,-448.578 1758.97,-440.277 1758.97,-440.277"/>
</g>
<!-- User&#45;&gt;Search -->
<g id="edge78" class="edge"><title>User&#45;&gt;Search</title>
<path fill="none" stroke="#5e86fe" d="M1577.22,-285.65C1661.76,-282.61 1874.77,-275.095 2053,-270 2094.61,-268.811 2765.58,-272.159 2802,-252 2812.71,-246.071 2820.71,-235.317 2826.34,-225.039"/>
<ellipse fill="none" stroke="#5e86fe" cx="1573.2" cy="-285.795" rx="4" ry="4"/>
<polygon fill="#5e86fe" stroke="#5e86fe" points="2826.43,-224.854 2834.89,-217.874 2828.64,-220.369 2830.86,-215.884 2830.86,-215.884 2830.86,-215.884 2828.64,-220.369 2826.82,-213.894 2826.43,-224.854 2826.43,-224.854"/>
</g>
<!-- User&#45;&gt;Role -->
<g id="edge79" class="edge"><title>User&#45;&gt;Role</title>
<path fill="none" stroke="#f07ba2" d="M1577.18,-291.838C1609.64,-295.586 1657.2,-304.219 1694,-324 1704.2,-329.481 1703.02,-335.857 1712.83,-342 1730.66,-353.168 1752.61,-361.583 1770.82,-367.36"/>
<ellipse fill="none" stroke="#f07ba2" cx="1572.83" cy="-291.372" rx="4" ry="4"/>
<polygon fill="#f07ba2" stroke="#f07ba2" points="1770.94,-367.396 1779.2,-374.605 1775.72,-368.847 1780.51,-370.299 1780.51,-370.299 1780.51,-370.299 1775.72,-368.847 1781.82,-365.993 1770.94,-367.396 1770.94,-367.396"/>
<text text-anchor="middle" x="1754.59" y="-327.4" font-family="Times,serif" font-size="14.00">accepted_roles</text>
</g>
<!-- UserNotifier -->
<g id="node20" class="node"><title>UserNotifier</title>
<polygon fill="none" stroke="black" points="4355.49,-486 4270.51,-486 4270.51,-450 4355.49,-450 4355.49,-486"/>
<text text-anchor="middle" x="4313" y="-462.4" font-family="Times,serif" font-size="14.00">UserNotifier</text>
</g>
<!-- UserObserver -->
<g id="node21" class="node"><title>UserObserver</title>
<polygon fill="none" stroke="black" points="4570.31,-486 4477.69,-486 4477.69,-450 4570.31,-450 4570.31,-486"/>
<text text-anchor="middle" x="4524" y="-462.4" font-family="Times,serif" font-size="14.00">UserObserver</text>
</g>
<!-- WebLink&#45;&gt;Contribution -->
<g id="edge84" class="edge"><title>WebLink&#45;&gt;Contribution</title>
<path fill="none" stroke="#264345" d="M1162.31,-183.9C1168.53,-182.358 1174.89,-180.985 1181,-180 1263.15,-166.748 1475.75,-187.36 1555,-162 1569.09,-157.491 1569.46,-149.966 1583,-144 1611.61,-131.393 1625.65,-144.295 1651,-126 1679.32,-105.563 1699.27,-69.8344 1710.44,-45.3275"/>
<ellipse fill="none" stroke="#264345" cx="1158.41" cy="-184.918" rx="4.00001" ry="4.00001"/>
<polygon fill="#264345" stroke="#264345" points="1710.55,-45.0698 1718.68,-37.7082 1712.55,-40.4881 1714.56,-35.9064 1714.56,-35.9064 1714.56,-35.9064 1712.55,-40.4881 1710.43,-34.1046 1710.55,-45.0698 1710.55,-45.0698"/>
</g>
<!-- WebLink&#45;&gt;User -->
<g id="edge85" class="edge"><title>WebLink&#45;&gt;User</title>
<path fill="none" stroke="#2f0c7f" d="M1134.17,-224.364C1141.32,-234.717 1150.98,-245.714 1162.7,-252 1220.3,-282.915 1415.88,-286.923 1500.47,-287.17"/>
<polygon fill="#2f0c7f" stroke="#2f0c7f" points="1134.16,-224.353 1132.54,-213.506 1131.46,-220.145 1128.76,-215.937 1128.76,-215.937 1128.76,-215.937 1131.46,-220.145 1124.97,-218.367 1134.16,-224.353 1134.16,-224.353"/>
<polygon fill="#2f0c7f" stroke="#2f0c7f" points="1500.7,-287.17 1510.69,-291.683 1505.7,-287.177 1510.7,-287.183 1510.7,-287.183 1510.7,-287.183 1505.7,-287.177 1510.7,-282.683 1500.7,-287.17 1500.7,-287.17"/>
<text text-anchor="middle" x="1185.15" y="-237.4" font-family="Times,serif" font-size="14.00">creators</text>
</g>
<!-- WebLink&#45;&gt;User -->
<g id="edge86" class="edge"><title>WebLink&#45;&gt;User</title>
<path fill="none" stroke="#f6a0c6" d="M1164.79,-213.407C1178.84,-218.859 1194.05,-225.772 1207,-234 1216.91,-240.297 1215.67,-247.101 1226.34,-252 1274.28,-274.001 1427.52,-282.706 1500.56,-285.67"/>
<polygon fill="#f6a0c6" stroke="#f6a0c6" points="1164.67,-213.36 1156.87,-205.651 1159.98,-211.614 1155.3,-209.868 1155.3,-209.868 1155.3,-209.868 1159.98,-211.614 1153.73,-214.085 1164.67,-213.36 1164.67,-213.36"/>
<polygon fill="#f6a0c6" stroke="#f6a0c6" points="1500.74,-285.677 1510.56,-290.563 1505.74,-285.871 1510.73,-286.066 1510.73,-286.066 1510.73,-286.066 1505.74,-285.871 1510.91,-281.57 1500.74,-285.677 1500.74,-285.677"/>
<text text-anchor="middle" x="1260.83" y="-237.4" font-family="Times,serif" font-size="14.00">contributors</text>
</g>
<!-- ContentItemRelation -->
<g id="node48" class="node"><title>ContentItemRelation</title>
<ellipse fill="none" stroke="black" cx="1287" cy="-108" rx="92.047" ry="18"/>
<text text-anchor="middle" x="1287" y="-102.4" font-family="Times,serif" font-size="14.00">ContentItemRelation</text>
</g>
<!-- WebLink&#45;&gt;ContentItemRelation -->
<g id="edge87" class="edge"><title>WebLink&#45;&gt;ContentItemRelation</title>
<path fill="none" stroke="#f57306" d="M1153.79,-179.193C1180.9,-164.907 1219.01,-144.829 1247.52,-129.804"/>
<ellipse fill="none" stroke="#f57306" cx="1150" cy="-181.191" rx="4.00002" ry="4.00002"/>
<polygon fill="#f57306" stroke="#f57306" points="1247.57,-129.779 1258.51,-129.098 1251.99,-127.448 1256.41,-125.117 1256.41,-125.117 1256.41,-125.117 1251.99,-127.448 1254.32,-121.136 1247.57,-129.779 1247.57,-129.779"/>
</g>
<!-- WebLink&#45;&gt;Topic -->
<g id="edge88" class="edge"><title>WebLink&#45;&gt;Topic</title>
<path fill="none" stroke="#d9b4eb" d="M1164.38,-183.375C1169.94,-182.043 1175.57,-180.866 1181,-180 1357.61,-151.812 1407.55,-196.681 1583,-162 1606.17,-157.42 1610.27,-150.424 1633,-144 1645.19,-140.553 1715.38,-126.229 1761.09,-117.008"/>
<polygon fill="#d9b4eb" stroke="#d9b4eb" points="1164.22,-183.417 1153.42,-181.55 1159.38,-184.663 1154.54,-185.908 1154.54,-185.908 1154.54,-185.908 1159.38,-184.663 1155.66,-190.267 1164.22,-183.417 1164.22,-183.417"/>
<polygon fill="#d9b4eb" stroke="#d9b4eb" points="1761.21,-116.986 1771.9,-119.422 1766.11,-115.998 1771.01,-115.01 1771.01,-115.01 1771.01,-115.01 1766.11,-115.998 1770.12,-110.599 1761.21,-116.986 1761.21,-116.986"/>
</g>
<!-- WebLink&#45;&gt;Comment -->
<g id="edge89" class="edge"><title>WebLink&#45;&gt;Comment</title>
<path fill="none" stroke="#ea98e0" d="M1075.18,-185.247C1066.54,-183.271 1057.52,-181.408 1049,-180 963.566,-165.882 936.866,-190.218 855,-162 841.013,-157.179 840.997,-148.789 827,-144 740.883,-114.534 713.458,-136.088 623,-126 599.706,-123.402 574.059,-120.035 552.018,-116.983"/>
<ellipse fill="none" stroke="#ea98e0" cx="1079.09" cy="-186.167" rx="4.00001" ry="4.00001"/>
<polygon fill="#ea98e0" stroke="#ea98e0" points="551.744,-116.945 542.463,-111.105 546.792,-116.253 541.841,-115.561 541.841,-115.561 541.841,-115.561 546.792,-116.253 541.218,-120.018 551.744,-116.945 551.744,-116.945"/>
</g>
<!-- WebLink&#45;&gt;ActsAsTaggableOn::Tagging -->
<g id="edge90" class="edge"><title>WebLink&#45;&gt;ActsAsTaggableOn::Tagging</title>
<path fill="none" stroke="#1c10da" d="M1078.05,-182.808C1043.96,-170.345 995.34,-150.413 956.559,-126 935.878,-112.982 936.145,-102.249 915,-90 844.661,-49.2536 755.041,-31.4728 682.694,-23.8939"/>
<ellipse fill="none" stroke="#1c10da" cx="1082.2" cy="-184.303" rx="4.00001" ry="4.00001"/>
<polygon fill="#1c10da" stroke="#1c10da" points="682.554,-23.8802 673.049,-18.413 677.579,-23.3856 672.604,-22.8909 672.604,-22.8909 672.604,-22.8909 677.579,-23.3856 672.158,-27.3688 682.554,-23.8802 682.554,-23.8802"/>
<text text-anchor="middle" x="980.721" y="-102.4" font-family="Times,serif" font-size="14.00">taggings</text>
</g>
<!-- WebLink&#45;&gt;ActsAsTaggableOn::Tag -->
<g id="edge91" class="edge"><title>WebLink&#45;&gt;ActsAsTaggableOn::Tag</title>
<path fill="none" stroke="#412c94" d="M1164.39,-183.411C1169.94,-182.072 1175.57,-180.885 1181,-180 1257.65,-167.5 1456.08,-185.796 1530,-162 1544.08,-157.467 1545.49,-151.901 1558,-144 1570.83,-135.898 1579.63,-139.257 1587,-126 1594.78,-112.018 1594.55,-104.107 1587,-90 1573.39,-64.5686 1560.29,-63.3454 1533,-54 1466.98,-31.3904 1284.2,-23.3863 1162.57,-20.5527"/>
<polygon fill="#412c94" stroke="#412c94" points="1164.23,-183.453 1153.42,-181.593 1159.39,-184.701 1154.54,-185.95 1154.54,-185.95 1154.54,-185.95 1159.39,-184.701 1155.67,-190.308 1164.23,-183.453 1164.23,-183.453"/>
<polygon fill="#412c94" stroke="#412c94" points="1162.46,-20.5503 1152.56,-15.8269 1157.46,-20.4381 1152.46,-20.3258 1152.46,-20.3258 1152.46,-20.3258 1157.46,-20.4381 1152.36,-24.8247 1162.46,-20.5503 1162.46,-20.5503"/>
<text text-anchor="middle" x="1620.21" y="-102.4" font-family="Times,serif" font-size="14.00">base_tags</text>
</g>
<!-- WebLink&#45;&gt;ActsAsTaggableOn::Tagging -->
<g id="edge92" class="edge"><title>WebLink&#45;&gt;ActsAsTaggableOn::Tagging</title>
<path fill="none" stroke="#20e467" d="M1073.89,-185.793C1065.61,-183.828 1057.06,-181.829 1049,-180 1045.52,-179.209 800.28,-128.197 797.462,-126 769.333,-104.065 790.613,-75.3003 762,-54 746.396,-42.3839 707.917,-34.3811 668.238,-28.9933"/>
<ellipse fill="none" stroke="#20e467" cx="1077.83" cy="-186.731" rx="4.00001" ry="4.00001"/>
<polygon fill="#20e467" stroke="#20e467" points="668.054,-28.9694 658.718,-23.2169 663.096,-28.3243 658.138,-27.6792 658.138,-27.6792 658.138,-27.6792 663.096,-28.3243 657.557,-32.1416 668.054,-28.9694 668.054,-28.9694"/>
<text text-anchor="middle" x="854.769" y="-102.4" font-family="Times,serif" font-size="14.00">public_tag_taggings</text>
</g>
<!-- WebLink&#45;&gt;ActsAsTaggableOn::Tag -->
<g id="edge93" class="edge"><title>WebLink&#45;&gt;ActsAsTaggableOn::Tag</title>
<path fill="none" stroke="#c3546c" d="M1164.62,-183.47C1170.1,-182.133 1175.65,-180.93 1181,-180 1289.88,-161.072 1323.89,-196.131 1429,-162 1468.08,-149.309 1506.98,-125.909 1487,-90 1472.25,-63.4865 1457.77,-63.6426 1429,-54 1380.72,-37.8156 1253.8,-28.4776 1159.43,-23.5817"/>
<polygon fill="#c3546c" stroke="#c3546c" points="1164.57,-183.483 1153.76,-181.635 1159.73,-184.737 1154.89,-185.991 1154.89,-185.991 1154.89,-185.991 1159.73,-184.737 1156.02,-190.347 1164.57,-183.483 1164.57,-183.483"/>
<polygon fill="#c3546c" stroke="#c3546c" points="1159.24,-23.5719 1149.48,-18.5699 1154.24,-23.318 1149.25,-23.0641 1149.25,-23.0641 1149.25,-23.0641 1154.24,-23.318 1149.02,-27.5583 1159.24,-23.5719 1159.24,-23.5719"/>
<text text-anchor="middle" x="1525.27" y="-102.4" font-family="Times,serif" font-size="14.00">public_tags</text>
</g>
<!-- WebLink&#45;&gt;ActsAsTaggableOn::Tagging -->
<g id="edge94" class="edge"><title>WebLink&#45;&gt;ActsAsTaggableOn::Tagging</title>
<path fill="none" stroke="#74d5d4" d="M1074.61,-185.214C1066.14,-183.276 1057.33,-181.435 1049,-180 974.56,-167.179 951.244,-187.099 880,-162 866.047,-157.084 865.985,-148.826 852,-144 811.404,-129.99 688.504,-157.75 659.586,-126 648.812,-114.171 649.691,-102.574 659.586,-90 680.629,-63.2602 712.957,-98.7398 734,-72 738.947,-65.7132 739.088,-60.1732 734,-54 724.54,-42.5233 698.006,-34.7617 668.123,-29.5322"/>
<ellipse fill="none" stroke="#74d5d4" cx="1078.71" cy="-186.176" rx="4.00001" ry="4.00001"/>
<polygon fill="#74d5d4" stroke="#74d5d4" points="667.748,-29.471 658.607,-23.4133 662.814,-28.6625 657.88,-27.8541 657.88,-27.8541 657.88,-27.8541 662.814,-28.6625 657.152,-32.2949 667.748,-29.471 667.748,-29.471"/>
<text text-anchor="middle" x="718.707" y="-102.4" font-family="Times,serif" font-size="14.00">private_tag_taggings</text>
</g>
<!-- WebLink&#45;&gt;ActsAsTaggableOn::Tag -->
<g id="edge95" class="edge"><title>WebLink&#45;&gt;ActsAsTaggableOn::Tag</title>
<path fill="none" stroke="#5af543" d="M1166.43,-183.974C1171.35,-182.621 1176.27,-181.275 1181,-180 1277.86,-153.872 1451.3,-167.831 1388,-90 1358.75,-54.0298 1242.19,-35.6772 1153.42,-26.7424"/>
<polygon fill="#5af543" stroke="#5af543" points="1166.06,-184.076 1155.22,-182.406 1161.24,-185.41 1156.42,-186.743 1156.42,-186.743 1156.42,-186.743 1161.24,-185.41 1157.62,-191.08 1166.06,-184.076 1166.06,-184.076"/>
<polygon fill="#5af543" stroke="#5af543" points="1153.24,-26.7247 1143.72,-21.2722 1148.26,-26.2378 1143.28,-25.7508 1143.28,-25.7508 1143.28,-25.7508 1148.26,-26.2378 1142.85,-30.2294 1153.24,-26.7247 1153.24,-26.7247"/>
<text text-anchor="middle" x="1436.21" y="-102.4" font-family="Times,serif" font-size="14.00">private_tags</text>
</g>
<!-- WebLink::Version -->
<g id="node49" class="node"><title>WebLink::Version</title>
<ellipse fill="none" stroke="black" cx="1095" cy="-108" rx="81.4084" ry="18"/>
<text text-anchor="middle" x="1095" y="-102.4" font-family="Times,serif" font-size="14.00">WebLink::Version</text>
</g>
<!-- WebLink&#45;&gt;WebLink::Version -->
<g id="edge96" class="edge"><title>WebLink&#45;&gt;WebLink::Version</title>
<path fill="none" stroke="#e57ebe" d="M1112.98,-172.296C1109.79,-161.051 1106,-147.709 1102.72,-136.181"/>
<ellipse fill="none" stroke="#e57ebe" cx="1114.09" cy="-176.185" rx="4.00001" ry="4.00001"/>
<polygon fill="#e57ebe" stroke="#e57ebe" points="1102.62,-135.835 1104.22,-124.986 1101.26,-131.025 1099.89,-126.215 1099.89,-126.215 1099.89,-126.215 1101.26,-131.025 1095.56,-127.445 1102.62,-135.835 1102.62,-135.835"/>
<text text-anchor="middle" x="1133.33" y="-147.4" font-family="Times,serif" font-size="14.00">versions</text>
</g>
<!-- ActiveRecord::Base -->
<g id="node33" class="node"><title>ActiveRecord::Base</title>
<ellipse fill="none" stroke="black" cx="2624" cy="-567" rx="88.2033" ry="18"/>
<text text-anchor="middle" x="2624" y="-561.4" font-family="Times,serif" font-size="14.00">ActiveRecord::Base</text>
</g>
<!-- ActiveRecord::Base&#45;&gt;Basket -->
<g id="edge16" class="edge"><title>ActiveRecord::Base&#45;&gt;Basket</title>
<path fill="none" stroke="black" d="M2594.01,-550.048C2575.06,-540.76 2549.74,-529.774 2526,-524 2508.19,-519.67 1951.62,-481.616 1802.47,-471.474"/>
</g>
<!-- ActiveRecord::Base&#45;&gt;Captcha -->
<g id="edge17" class="edge"><title>ActiveRecord::Base&#45;&gt;Captcha</title>
<path fill="none" stroke="black" d="M2594.98,-549.958C2575.98,-540.379 2550.27,-529.111 2526,-524 2430.1,-503.805 855.829,-534.305 762,-506 747.655,-501.673 733.515,-492.533 722.907,-484.42"/>
</g>
<!-- ActiveRecord::Base&#45;&gt;Choice -->
<g id="edge21" class="edge"><title>ActiveRecord::Base&#45;&gt;Choice</title>
<path fill="none" stroke="black" d="M2710.86,-563.411C2789.29,-558.493 2906.53,-544.627 3001,-506 3013.72,-500.8 3026.31,-491.957 3035.92,-484.22"/>
</g>
<!-- ActiveRecord::Base&#45;&gt;ChoiceMapping -->
<g id="edge22" class="edge"><title>ActiveRecord::Base&#45;&gt;ChoiceMapping</title>
<path fill="none" stroke="black" d="M2702.78,-558.809C2793.62,-548.696 2934.64,-526.772 2967,-486 2990.45,-456.45 2952.4,-417.299 2925.97,-395.482"/>
</g>
<!-- ActiveRecord::Base&#45;&gt;Comment -->
<g id="edge34" class="edge"><title>ActiveRecord::Base&#45;&gt;Comment</title>
<path fill="none" stroke="black" d="M2594.98,-549.957C2575.98,-540.378 2550.27,-529.111 2526,-524 2429.61,-503.704 851.201,-513.729 753,-506 697.012,-501.594 503,-525.161 503,-469 503,-469 503,-469 503,-197 503,-172.346 500.627,-143.896 498.866,-126.176"/>
</g>
<!-- ActiveRecord::Base&#45;&gt;ConfigurableSetting -->
<g id="edge35" class="edge"><title>ActiveRecord::Base&#45;&gt;ConfigurableSetting</title>
<path fill="none" stroke="black" d="M2593.55,-549.948C2574.63,-540.746 2549.52,-529.886 2526,-524 2435.13,-501.26 2407.52,-526.003 2316,-506 2293.17,-501.01 2268.5,-492.273 2249.03,-484.543"/>
</g>
<!-- ActiveRecord::Base&#45;&gt;ContentType -->
<g id="edge39" class="edge"><title>ActiveRecord::Base&#45;&gt;ContentType</title>
<path fill="none" stroke="black" d="M2700.95,-558.04C2828.55,-544.627 3091.87,-516.031 3314,-486 3333.05,-483.424 3353.91,-480.282 3372.3,-477.404"/>
</g>
<!-- ActiveRecord::Base&#45;&gt;Contribution -->
<g id="edge40" class="edge"><title>ActiveRecord::Base&#45;&gt;Contribution</title>
<path fill="none" stroke="black" d="M2711.84,-564.881C3030.63,-560.251 4108,-539.397 4108,-469 4108,-469 4108,-469 4108,-107 4108,-46.9346 2151.81,-23.5027 1781.2,-19.6024"/>
</g>
<!-- ActiveRecord::Base&#45;&gt;Import -->
<g id="edge42" class="edge"><title>ActiveRecord::Base&#45;&gt;Import</title>
<path fill="none" stroke="black" d="M2711.74,-564.728C3025.02,-559.619 4070,-537.445 4070,-469 4070,-469 4070,-469 4070,-287 4070,-220.197 3835.44,-203.939 3742.91,-200.124"/>
</g>
<!-- ActiveRecord::Base&#45;&gt;OaiPmhRepositorySet -->
<g id="edge43" class="edge"><title>ActiveRecord::Base&#45;&gt;OaiPmhRepositorySet</title>
<path fill="none" stroke="black" d="M2624,-548.658C2624,-531.002 2624,-503.793 2624,-486.192"/>
</g>
<!-- ActiveRecord::Base&#45;&gt;ProfileMapping -->
<g id="edge45" class="edge"><title>ActiveRecord::Base&#45;&gt;ProfileMapping</title>
<path fill="none" stroke="black" d="M2658.87,-550.387C2683.73,-537.165 2715.25,-515.614 2730,-486 2746.67,-452.537 2711.6,-415.738 2686.79,-395.192"/>
</g>
<!-- ActiveRecord::Base&#45;&gt;RedirectRegistration -->
<g id="edge46" class="edge"><title>ActiveRecord::Base&#45;&gt;RedirectRegistration</title>
<path fill="none" stroke="black" d="M2662.39,-550.737C2708.02,-532.597 2783.72,-502.505 2829.43,-484.334"/>
</g>
<!-- ActiveRecord::Base&#45;&gt;Role -->
<g id="edge49" class="edge"><title>ActiveRecord::Base&#45;&gt;Role</title>
<path fill="none" stroke="black" d="M2591.01,-550.089C2572.27,-541.501 2548.18,-531.214 2526,-524 2491.75,-512.862 2481.34,-516.849 2447,-506 2384.28,-486.182 2373.5,-467.173 2310,-450 2133.77,-402.34 1913.66,-385.334 1835.86,-380.569"/>
</g>
<!-- ActiveRecord::Base&#45;&gt;Search -->
<g id="edge50" class="edge"><title>ActiveRecord::Base&#45;&gt;Search</title>
<path fill="none" stroke="black" d="M2590.7,-550.133C2549.5,-528.375 2488.24,-487.675 2518,-450 2582.29,-368.626 2663.38,-459.977 2745,-396 2804.56,-349.31 2827.26,-254.914 2834.3,-216.179"/>
</g>
<!-- ActiveRecord::Base&#45;&gt;SystemSetting -->
<g id="edge51" class="edge"><title>ActiveRecord::Base&#45;&gt;SystemSetting</title>
<path fill="none" stroke="black" d="M2697.08,-556.869C2800.98,-543.496 2997.21,-516.804 3163,-486 3171.91,-484.345 3181.36,-482.392 3190.46,-480.41"/>
</g>
<!-- ActiveRecord::Base&#45;&gt;TopicType -->
<g id="edge58" class="edge"><title>ActiveRecord::Base&#45;&gt;TopicType</title>
<path fill="none" stroke="black" d="M2703.41,-558.985C2916.83,-540.131 3498.41,-488.752 3672.27,-473.393"/>
</g>
<!-- ActiveRecord::Base&#45;&gt;User -->
<g id="edge80" class="edge"><title>ActiveRecord::Base&#45;&gt;User</title>
<path fill="none" stroke="black" d="M2594.06,-549.838C2575.12,-540.471 2549.81,-529.475 2526,-524 2351.16,-483.799 1036.54,-563.028 914,-432 828.333,-340.402 1376.82,-299.352 1510.92,-290.753"/>
</g>
<!-- ActiveRecord::Base&#45;&gt;UserRole -->
<g id="edge83" class="edge"><title>ActiveRecord::Base&#45;&gt;UserRole</title>
<path fill="none" stroke="black" d="M2587.61,-550.433C2546.55,-532.851 2485.38,-506.583 2485,-506 2471.33,-485.204 2475.48,-472.994 2485,-450 2489.33,-439.547 2498.67,-442.453 2503,-432 2506.06,-424.609 2507.72,-420.458 2503,-414 2460.79,-356.28 2245.18,-312.531 2152.47,-296.093"/>
</g>
<!-- ActiveRecord::Base&#45;&gt;WebLink -->
<g id="edge97" class="edge"><title>ActiveRecord::Base&#45;&gt;WebLink</title>
<path fill="none" stroke="black" d="M2594.97,-549.997C2575.97,-540.434 2550.26,-529.169 2526,-524 2395.36,-496.165 1457.5,-510.474 1324,-506 1263.01,-503.956 776,-530.028 776,-469 776,-469 776,-469 776,-287 776,-213.155 1046.97,-216.724 1051,-216 1061.44,-214.123 1072.66,-211.588 1082.94,-209.05"/>
</g>
<!-- Object -->
<g id="node42" class="node"><title>Object</title>
<ellipse fill="none" stroke="black" cx="4171" cy="-567" rx="36.1697" ry="18"/>
<text text-anchor="middle" x="4171" y="-561.4" font-family="Times,serif" font-size="14.00">Object</text>
</g>
<!-- Object&#45;&gt;PqfQuery -->
<g id="edge44" class="edge"><title>Object&#45;&gt;PqfQuery</title>
<path fill="none" stroke="black" d="M4171,-548.658C4171,-531.002 4171,-503.793 4171,-486.192"/>
</g>
<!-- ActionMailer::Base -->
<g id="node46" class="node"><title>ActionMailer::Base</title>
<ellipse fill="none" stroke="black" cx="4313" cy="-567" rx="87.2974" ry="18"/>
<text text-anchor="middle" x="4313" y="-561.4" font-family="Times,serif" font-size="14.00">ActionMailer::Base</text>
</g>
<!-- ActionMailer::Base&#45;&gt;UserNotifier -->
<g id="edge81" class="edge"><title>ActionMailer::Base&#45;&gt;UserNotifier</title>
<path fill="none" stroke="black" d="M4313,-548.658C4313,-531.002 4313,-503.793 4313,-486.192"/>
</g>
<!-- ActiveRecord::Observer -->
<g id="node47" class="node"><title>ActiveRecord::Observer</title>
<ellipse fill="none" stroke="black" cx="4524" cy="-567" rx="105.134" ry="18"/>
<text text-anchor="middle" x="4524" y="-561.4" font-family="Times,serif" font-size="14.00">ActiveRecord::Observer</text>
</g>
<!-- ActiveRecord::Observer&#45;&gt;UserObserver -->
<g id="edge82" class="edge"><title>ActiveRecord::Observer&#45;&gt;UserObserver</title>
<path fill="none" stroke="black" d="M4524,-548.658C4524,-531.002 4524,-503.793 4524,-486.192"/>
</g>
</g>
</svg>
